<svg version="1.0" xmlns="http://www.w3.org/2000/svg" width="669.333" height="693.333" viewBox="0 0 502 520"><path d="M238.1 2.1c-36.9 3.9-70.6 18.4-91.7 39.4-13.2 13.2-21.6 27.1-28.1 46.3-4.3 13-5.3 21.1-2.9 24.7 3.3 5.1 5 5.5 38.3 9.1 38.4 4.1 38.3 4.1 42.2.9 2.9-2.5 4.2-5.3 7.6-16.4 4.6-15 17.3-26.4 34.8-31.1 11.4-3.1 27.2-2.6 36.5 1.2 12.1 5 19.4 12.7 23.4 24.9 1.8 5.4 2.2 9.4 2.6 26.1.3 16 .1 19.9-1 20.2-.7.2-10.7 1.4-22.3 2.6-27 2.8-52 6.4-66.5 9.7-43.2 9.6-70.9 26.8-90.1 55.7-6.4 9.7-10.7 19.8-14.7 34.6-2.4 8.9-2.6 10.9-2.6 31.5 0 21.5.1 22.2 3.2 33.7 8.9 33.1 27.9 54 59 65.2 11.6 4.1 22.9 5.8 40.2 5.7 44.5 0 69.2-10.4 103.6-43.4l5.2-4.9 2.4 3.4c1.3 1.8 5.1 7.1 8.4 11.8 6.2 8.8 22.3 25.8 27.8 29.1 4.2 2.5 10.2 2.4 14.8-.4 2-1.2 12.8-10.2 24-20.1 11.2-9.8 23.1-20.3 26.6-23.3 6-5.2 6.2-5.6 6.2-10.2 0-4.3-.8-5.8-8.6-17.2-9.9-14.3-15.4-25.2-18-35.9-1.7-6.8-1.9-15.3-2.5-94.5-.7-91.3-.7-91.5-5.5-107.5C378.3 33.1 342.9 9.1 286 2c-9.8-1.2-35.8-1.1-47.9.1zm62.6 226.6c-.6 31.5-1.7 37.7-9.7 53.8-9.1 18.2-19.9 28.4-35.4 33.5-9.5 3.1-22.5 2.5-30.8-1.4-15.2-7.2-22.9-22.5-22.9-45.6 0-26.2 10.6-44.5 31.9-54.9 14.9-7.4 35.2-11.5 58.1-11.9l9.3-.2-.5 26.7zM452.9 381c-15.7 1.8-34 8-42.6 14.6-3.2 2.4-4.3 5.7-2.3 6.9.5.3 7.8-.1 16.2-1 18.1-1.8 36.6-1.9 44-.4 7.3 1.6 10.8 5.3 10.8 11.3 0 8.9-6.1 31.1-13.6 49.4-3.7 9.1-4.2 12-1.9 12.8 2.9 1.1 7.6-1.9 13.1-8.3 10.1-12 16.2-23 21.5-38.8 3-9.2 3.3-11.2 3.7-25.3l.4-15.2-4.4-1.9c-8.3-3.7-30.3-5.7-44.9-4.1z"/><path d="M10.8 386.1c-4.5 2.6-.8 8.7 14.8 24.4 37.1 37.3 86.9 68.8 134.4 84.9 15.2 5.1 36.4 10.3 52.5 12.8 17.9 2.8 54.6 3 75.4.4 52.9-6.5 101.8-25.9 141.6-56.1 12.1-9.2 22.1-19.7 23.6-24.7.6-2.4.5-3.8-.6-5.5-2.4-3.6-6.9-2.9-19.7 2.8-38.2 17.3-77.3 29.8-113.8 36.3-21.8 3.9-29.3 4.6-56 5.3-27.5.6-43.7-.4-65.5-4.2-54.2-9.5-95.9-26.8-166.4-68.9-14.3-8.5-16.9-9.5-20.3-7.5z"/></svg>