<svg xmlns="http://www.w3.org/2000/svg" viewBox="0 0 512.001 512.001"  xmlns:v="https://vecta.io/nano"><path d="M373.406 0H138.594C62.172 0 0 62.172 0 138.594V373.41C0 449.828 62.172 512 138.594 512H373.41C449.828 512 512 449.828 512 373.41V138.594C512 62.172 449.828 0 373.406 0zM256 395.996c-77.195 0-139.996-62.801-139.996-139.996S178.805 116.004 256 116.004 395.996 178.805 395.996 256 333.195 395.996 256 395.996zM399.344 149.02c-22.812 0-41.367-18.555-41.367-41.367s18.555-41.371 41.367-41.371 41.371 18.559 41.371 41.371-18.559 41.367-41.371 41.367zm-143.344-3c-60.641 0-109.98 49.336-109.98 109.98S195.359 365.98 256 365.98 365.98 316.641 365.98 256 316.645 146.02 256 146.02zm0 0" fill="#333"/></svg>