<svg xmlns="http://www.w3.org/2000/svg" width="1200" height="1200" viewBox="0 0 900 900" preserveAspectRatio="xMidYMid meet" xmlns:v="https://vecta.io/nano"><path d="M438.5 24.3c-8 4.3-11.5 9.2-21.6 29.7L399 90c-.5.8-5.6 11.2-11.3 23L369 151c-.5.8-8.3 16.8-17.5 35.5L334 222c-.5.8-1.9 3.5-3 6-1.2 2.5-2.6 5.2-3.1 6a20.99 20.99 0 0 0-1.5 3c-.9 2.3-4.4 9.3-5.4 11-.5.8-5.2 10.4-10.4 21.2l-9.6 19.6-5.3 1.2c-2.8.6-8.6 1.5-12.7 2s-9.5 1.3-12 1.9c-2.5.5-6.6 1-9.1 1.1-2.6 0-6.6.7-8.9 1.5s-7 1.5-10.4 1.5c-3.3 0-7.9.5-10.1 1.1s-7.1 1.4-11 1.9c-16.1 1.9-24.4 3.2-30.5 4.5-3.6.8-9.9 1.6-14.2 1.9-4.2.2-8.5.9-9.6 1.5-1.2.6-4.2 1.1-6.9 1.1-2.6 0-6.8.5-9.3 1.1s-7.9 1.5-12 2a470.12 470.12 0 0 0-27.5 4 347.7 347.7 0 0 1-15.2 1.9c-5.1.4-9.7 1.1-10.3 1.5s-4.3 1-8.3 1.5c-13.2 1.4-24.1 3.1-30.4 4.6-3.4.7-8.5 1.4-11.5 1.4-2.9 0-7.1.5-9.3 1.1a83.08 83.08 0 0 1-7.4 1.6c-6.5 1-14.6 8.2-17.9 15.6-1.4 3.4-1.6 17.3-.2 18.2.5.3 1 1.5 1 2.5 0 2.4 26.4 28.7 109.5 109.5l52 50.7 31.4 30.7 14.4 14-1.3 5.8c-.7 3.2-1.6 8.5-2 11.8s-1.2 7.6-1.9 9.5c-.6 1.9-1.1 5.6-1.1 8.1 0 2.6-.7 6.6-1.5 8.9s-1.5 5.8-1.5 7.7-.6 6.5-1.4 10.2c-2.6 11.8-3.9 19.5-4.7 26.1-.4 3.6-1.2 8.7-1.8 11.5-1.7 8.4-3.2 16.7-4.1 23.5-.4 3.6-1.3 8.1-1.9 10s-1.1 5.1-1.1 7-.7 5.7-1.5 8.4-1.5 6.8-1.5 9c0 2.3-.5 5.7-1.1 7.6s-1.4 6.4-1.9 10c-1 7.7-2.6 16.2-4.6 24.7-.8 3.4-1.4 8-1.4 10.4 0 2.3-.6 6.5-1.4 9.3-1.4 4.7-2.3 10.1-4.5 26.2-.4 3.4-1.1 6.7-1.5 7.3-.4.7-1.1 4.4-1.6 8.4-.4 4-1.3 9-1.9 11.2-3.7 14 2.6 27.7 15.4 33.4 5.5 2.4 14.4 2.8 18.3.7l16.2-8c.8-.4 5.6-2.9 10.5-5.6l17-9 9.5-5c.8-.5 2.2-1.1 3-1.4s4.2-2.2 7.5-4c3.3-1.9 11-6 17-9.1L289 830c.8-.5 2.2-1.1 3-1.4.8-.4 2.9-1.5 4.5-2.6 1.7-1.1 3.7-2.2 4.5-2.6a20.99 20.99 0 0 0 3-1.5 20.99 20.99 0 0 1 3-1.5c.8-.3 2.2-.9 3-1.4s5.1-2.7 9.5-5l14-7.4c10.8-5.8 14-7.4 15.5-8 .8-.4 5.6-2.8 10.5-5.5l17-9.1c4.4-2.2 8.7-4.5 9.5-5s2.2-1.1 3-1.4a178.34 178.34 0 0 0 6-3.2c2.5-1.5 8.8-4.8 14-7.6l14.8-7.8c.9-.6 2.3-1.2 3-1.5 3.2-1.3 3.9-1.6 6.7-3.5 5.3-3.3 13.3-7 15.5-7s10.2 3.7 15.5 7c1.7 1.1 3.7 2.2 4.5 2.6a20.99 20.99 0 0 1 3 1.5 20.99 20.99 0 0 0 3 1.5c.8.3 2.2.9 3 1.4s5.1 2.7 9.5 5c4.4 2.2 10.7 5.6 14 7.5s6.7 3.8 7.5 4.1 2.2.9 3 1.4 5.1 2.7 9.5 5l13.3 7c.9.5 4 2.1 6.7 3.5 2.8 1.4 5.7 3 6.5 3.4.8.5 3.5 1.9 6 3.2l10.5 5.5 14 7.4 13 6.8c1.1.7 2.5 1.4 3 1.6.6.2 1.7.7 2.5 1s2.9 1.5 4.5 2.6c1.7 1.1 3.7 2.2 4.5 2.6.8.3 2.2.9 3 1.4s6.5 3.4 12.5 6.5c6.1 3.1 13.7 7.2 17 9.1 3.3 1.8 6.7 3.7 7.5 4s2.2.9 3 1.4 5.1 2.7 9.5 5c4.4 2.2 12.1 6.3 17 9l10.5 5.6c.8.3 3.3 1.5 5.5 2.7 2.2 1.1 4.7 2.4 5.5 2.7l4.7 2.4c4.4 2.3 13.3 2.1 18.9-.4 12.7-5.8 19-19.6 15.3-33.5-.6-2.2-1.5-7.2-1.9-11.2-.5-4-1.2-7.7-1.6-8.4-.4-.6-1.1-3.9-1.5-7.3-2.2-16.1-3.1-21.5-4.5-26.2-.8-2.8-1.4-7-1.4-9.3 0-2.4-.6-7-1.4-10.4-2-8.5-3.6-17-4.6-24.7-.5-3.6-1.3-8.1-1.9-10s-1.1-5.3-1.1-7.6c0-2.2-.7-6.3-1.5-9s-1.5-6.5-1.5-8.4-.5-5.1-1.1-7-1.5-6.4-1.9-10c-.9-6.8-2.4-15.1-4.1-23.5-.6-2.8-1.4-7.9-1.8-11.5-.8-6.6-2.1-14.3-4.7-26.1-.8-3.7-1.4-8.3-1.4-10.2s-.7-5.4-1.5-7.7-1.5-6.3-1.5-8.9c0-2.5-.5-6.2-1.1-8.1-.7-1.9-1.5-6.2-1.9-9.5s-1.3-8.6-2-11.8l-1.3-5.8 14.4-14 31.4-30.7 52-50.7L896 367.1c0-2.1 2.3-4.4 3.3-3.4.4.3.7-2.9.7-7.3 0-6.8-.3-8.1-2-9.2-1.1-.7-2-1.7-2-2.3 0-3.9-11.2-13.3-17.1-14.2a83.08 83.08 0 0 1-7.4-1.6c-2.2-.6-6.4-1.1-9.3-1.1-3 0-8.1-.7-11.5-1.4-6.3-1.5-17.2-3.2-30.4-4.6-4-.5-7.7-1.1-8.3-1.5s-5.2-1.1-10.3-1.5a347.7 347.7 0 0 1-15.2-1.9 470.12 470.12 0 0 0-27.5-4c-4.1-.5-9.5-1.4-12-2s-6.7-1.1-9.3-1.1c-2.7 0-5.7-.5-6.9-1.1-1.1-.6-5.4-1.3-9.6-1.5-4.3-.3-10.6-1.1-14.2-1.9-6.1-1.3-14.4-2.6-30.5-4.5-3.8-.5-8.8-1.3-11-1.9s-6.8-1.1-10.1-1.1c-3.4 0-8.1-.7-10.4-1.5s-6.3-1.5-8.9-1.5c-2.5-.1-6.6-.6-9.1-1.1-2.5-.6-7.9-1.4-12-1.9s-9.9-1.4-12.7-2l-5.3-1.2-9.6-19.6L577 248c-1-1.7-4.5-8.7-5.4-11a20.99 20.99 0 0 0-1.5-3c-.5-.8-1.9-3.5-3.1-6-1.1-2.5-2.5-5.2-3-6s-8.4-16.8-17.5-35.5L529 151c-1.2-2.1-6.6-13.1-18.7-38L499 90c-.9-1.6-2.5-4.8-17.9-36-10.2-20.7-13.7-25.5-21.9-29.8-5.8-3-15.1-2.9-20.7.1z" fill="#ffd966"/></svg>