<svg xmlns="http://www.w3.org/2000/svg" height="512" width="512"  xmlns:v="https://vecta.io/nano"><path d="M480.32 128.4c-29.22 0-56.18-9.68-77.83-26-24.83-18.72-42.67-46.18-48.97-77.83-1.56-7.82-2.4-15.9-2.48-24.16h-83.47l-.1 353c0 33.4-21.75 61.72-51.9 71.68-8.75 2.9-18.2 4.26-28.04 3.72-12.56-.7-24.33-4.48-34.56-10.6-21.77-13.02-36.53-36.64-36.93-63.66-.63-42.23 33.5-76.66 75.7-76.66 8.33 0 16.33 1.36 23.82 3.83v-84.75a164.25 164.25 0 0 0-24.07-1.78c-46.2 0-89.4 19.2-120.27 53.8-23.34 26.14-37.34 59.5-39.5 94.46-2.83 45.94 13.98 89.6 46.58 121.83 4.8 4.73 9.82 9.12 15.08 13.17 27.95 21.5 62.12 33.17 98.1 33.17a164.25 164.25 0 0 0 24.07-1.77c33.62-4.98 64.64-20.37 89.12-44.57 30.08-29.73 46.7-69.2 46.88-111.2l-.43-186.56c14.35 11.07 30.04 20.23 46.88 27.34 26.2 11.05 53.96 16.65 82.54 16.64v-83.1c.02.02-.22.02-.24.02z" fill="#333"/></svg>