<svg version="1.0" xmlns="http://www.w3.org/2000/svg" width="910.667" height="910.667" viewBox="0 0 683 683"><path fill="#222" d="M247 104.1c-92.8 2.2-156.4 7.3-176.4 14-14.2 4.8-29.5 15.1-38.5 25.7-6.8 8.2-13.6 20.3-16.4 29.4C1.4 218.8-3.9 346.6 4.5 442c5.5 61.6 12.7 83.6 33.8 103.6 17.1 16.3 32.3 21.9 72.2 26.3 58.7 6.6 187.6 10.2 291.7 8.2 139.2-2.7 195.8-7.4 219.4-18.1 26.3-11.9 43.1-34 49.4-65.1 16.2-79.5 15.3-251.1-1.6-316.9-7.8-29.9-29.5-52.9-58.4-61.8-23-7.1-82.7-11.7-183-14.2-44.1-1.1-134.5-1.1-181 .1zM363.3 291c65.4 37.7 87.3 50.8 86.4 51.6-1.4 1.3-175.4 101.4-176.2 101.4-.3 0-.5-45.9-.5-102.1 0-83.8.2-102 1.3-101.7.7.2 40.8 23 89 50.8z"/></svg>