<?xml version="1.0" encoding="utf-8"?>
<!-- Generator: Adobe Illustrator 24.3.0, SVG Export Plug-In . SVG Version: 6.00 Build 0)  -->
<svg version="1.1" id="Layer_1" xmlns="http://www.w3.org/2000/svg" xmlns:xlink="http://www.w3.org/1999/xlink" x="0px" y="0px"
	 viewBox="0 0 300 75" style="enable-background:new 0 0 300 75;" xml:space="preserve">
<style type="text/css">
	.st0{fill:#FFFFFF;}
	.st1{fill:url(#SVGID_1_);}
	.st2{fill:url(#SVGID_2_);}
</style>
<g>
	<rect class="st0" width="300" height="75"/>
	<g>
		<linearGradient id="SVGID_1_" gradientUnits="userSpaceOnUse" x1="51.9881" y1="40.3363" x2="30.5532" y2="40.3363">
			<stop  offset="0" style="stop-color:#FF8598"/>
			<stop  offset="1" style="stop-color:#FFC6D2;stop-opacity:0.9"/>
		</linearGradient>
		<path class="st1" d="M30.6,40.3v10.7h10.7c5.9,0,10.7-4.8,10.7-10.7s-4.8-10.7-10.7-10.7S30.6,34.4,30.6,40.3z"/>
		<linearGradient id="SVGID_2_" gradientUnits="userSpaceOnUse" x1="41.2707" y1="34.9674" x2="19.8358" y2="34.9674">
			<stop  offset="0" style="stop-color:#FF8598"/>
			<stop  offset="1" style="stop-color:#FFC6D2;stop-opacity:0.9"/>
		</linearGradient>
		<path class="st2" d="M41.3,35v10.7H30.6c-5.9,0-10.7-4.8-10.7-10.7s4.8-10.7,10.7-10.7S41.3,29,41.3,35z"/>
	</g>
	<g>
		<path d="M77.6,34.3l-3.2,3.2c-0.7-0.7-1.3-1.1-1.9-1.4c-0.6-0.2-1.2-0.4-1.9-0.4c-1.7,0-2.9,0.5-3.6,1.5c-0.8,1-1.1,2.3-1.1,3.9
			c0,1.6,0.4,3,1.1,4c0.8,1,2,1.5,3.7,1.5c0.7,0,1.3-0.1,1.8-0.3c0.5-0.2,1.2-0.7,1.9-1.4l3.1,3.1c-1,1-2.1,1.8-3.3,2.3
			c-1.2,0.5-2.5,0.8-3.9,0.8c-1.5,0-2.8-0.3-4-0.8c-1.2-0.5-2.3-1.2-3.1-2.1c-0.9-0.9-1.6-1.9-2-3.2c-0.5-1.2-0.7-2.5-0.7-3.9
			c0-1.4,0.2-2.7,0.7-3.9c0.5-1.2,1.2-2.3,2-3.2c0.9-0.9,1.9-1.6,3.1-2.1c1.2-0.5,2.6-0.8,4-0.8C73.1,31.3,75.6,32.3,77.6,34.3z"/>
		<path d="M93,32.1c1.2,0.5,2.3,1.2,3.2,2.1c0.9,0.9,1.6,1.9,2.1,3.2c0.5,1.2,0.7,2.5,0.7,3.9c0,1.4-0.2,2.7-0.7,3.9
			c-0.5,1.2-1.2,2.3-2.1,3.2c-0.9,0.9-1.9,1.6-3.2,2.1c-1.2,0.5-2.6,0.8-4.1,0.8c-1.5,0-2.8-0.3-4.1-0.8c-1.2-0.5-2.3-1.2-3.2-2.1
			c-0.9-0.9-1.6-1.9-2.1-3.2c-0.5-1.2-0.7-2.5-0.7-3.9c0-1.4,0.2-2.7,0.7-3.9c0.5-1.2,1.2-2.3,2.1-3.2c0.9-0.9,1.9-1.6,3.2-2.1
			c1.2-0.5,2.6-0.8,4.1-0.8C90.4,31.3,91.8,31.6,93,32.1z M92.4,45.2c0.7-1,1.1-2.3,1.1-4c0-1.6-0.4-3-1.1-4c-0.7-1-1.9-1.5-3.4-1.5
			c-1.5,0-2.7,0.5-3.4,1.5c-0.7,1-1.1,2.3-1.1,4c0,1.6,0.4,3,1.1,4c0.7,1,1.9,1.5,3.4,1.5C90.5,46.7,91.7,46.2,92.4,45.2z"/>
		<path d="M107.4,23.8v26.6H102V23.8H107.4z"/>
		<path d="M117,23.8v26.6h-5.4V23.8H117z"/>
		<path d="M137.1,50.4H132l-0.2-1.5c-0.4,0.7-1,1.2-1.8,1.6c-0.8,0.4-1.8,0.6-2.9,0.6c-0.8,0-1.6-0.1-2.5-0.4
			c-0.9-0.3-1.6-0.7-2.3-1.2c-0.7-0.6-1.3-1.3-1.7-2.1c-0.5-0.8-0.7-1.8-0.7-2.9c0-1.4,0.3-2.5,1-3.3c0.7-0.8,1.5-1.4,2.5-1.8
			c1-0.4,2.1-0.7,3.4-0.8c1.2-0.1,2.4-0.2,3.4-0.2h1.4v-0.2c0-0.9-0.3-1.6-0.9-1.9c-0.6-0.4-1.5-0.5-2.7-0.5c-1.3,0-2.4,0.2-3.3,0.5
			c-0.9,0.3-1.7,0.6-2.3,1l-1.9-4c0.2-0.1,0.5-0.3,1-0.5c0.5-0.2,1-0.4,1.7-0.6c0.7-0.2,1.4-0.4,2.3-0.6c0.8-0.2,1.8-0.2,2.7-0.2
			c1.2,0,2.3,0.1,3.4,0.4c1.1,0.3,2,0.8,2.8,1.4c0.8,0.6,1.4,1.5,1.9,2.5c0.5,1,0.7,2.2,0.7,3.7V50.4z M131.7,42.2
			c-1.3,0-2.3,0.1-3.1,0.2c-0.8,0.1-1.4,0.3-1.9,0.5c-0.5,0.2-0.8,0.5-1,0.8c-0.2,0.3-0.3,0.6-0.3,1.1c0,0.6,0.2,1.1,0.6,1.5
			c0.4,0.4,1,0.6,2,0.6c0.9,0,1.6-0.2,2.2-0.6c0.6-0.4,1.1-0.9,1.5-1.6V42.2z"/>
		<path d="M148.5,50.6c-0.8-0.4-1.5-0.9-2.1-1.6l-0.2,1.4h-5.1V23.8h5.4v9.5c0.6-0.6,1.3-1.1,2.1-1.5c0.8-0.4,1.8-0.5,2.9-0.5
			c1.2,0,2.4,0.2,3.5,0.7c1.1,0.4,2.1,1.1,2.9,1.9c0.8,0.8,1.5,1.9,1.9,3.1c0.5,1.2,0.7,2.6,0.7,4.1c0,1.5-0.2,2.9-0.7,4.1
			c-0.5,1.2-1.1,2.3-2,3.2c-0.8,0.9-1.8,1.6-2.9,2.1c-1.1,0.5-2.3,0.7-3.6,0.7C150.2,51.2,149.3,51,148.5,50.6z M153.8,45.3
			c0.8-0.9,1.2-2.2,1.2-4.1c0-1.7-0.4-3.1-1.1-4c-0.8-0.9-1.9-1.4-3.4-1.4c-1.3,0-2.3,0.4-3.1,1.2c-0.8,0.8-1.1,2.2-1.1,4.1
			c0,0.8,0.1,1.5,0.2,2.2c0.1,0.7,0.4,1.3,0.7,1.8c0.3,0.5,0.8,0.9,1.3,1.2c0.5,0.3,1.2,0.4,2,0.4C152,46.7,153,46.2,153.8,45.3z"/>
		<path d="M163.4,50.4V32.1h5l0.2,1.5c0.3-0.4,0.6-0.8,1-1c0.4-0.3,0.8-0.5,1.2-0.7c0.4-0.2,0.8-0.3,1.3-0.4
			c0.4-0.1,0.8-0.1,1.2-0.1c0.9,0,1.6,0.1,2.2,0.2c0.6,0.1,1.1,0.3,1.6,0.5c0.5,0.2,0.9,0.4,1.2,0.7c0.3,0.3,0.6,0.6,0.9,0.9
			c0.8-0.8,1.7-1.3,2.5-1.7c0.9-0.4,2-0.6,3.2-0.6c1.5,0,2.7,0.2,3.7,0.7c1,0.5,1.8,1.1,2.4,1.8c0.6,0.7,1,1.6,1.3,2.4
			c0.2,0.9,0.4,1.8,0.4,2.6v11.5h-5.4V39.7c0-0.4,0-0.9-0.1-1.3c-0.1-0.5-0.2-0.9-0.4-1.3c-0.2-0.4-0.5-0.7-0.9-0.9
			c-0.4-0.2-1-0.4-1.6-0.4c-1,0-1.8,0.3-2.5,0.9c-0.6,0.6-0.9,1.5-0.9,2.8v11h-5.4V39.7c0-0.4,0-0.9-0.1-1.3c0-0.5-0.2-0.9-0.4-1.3
			c-0.2-0.4-0.5-0.7-0.9-0.9c-0.4-0.2-1-0.4-1.7-0.4c-1,0-1.9,0.3-2.5,1c-0.6,0.7-0.9,1.7-0.9,3.2v10.4H163.4z"/>
		<path d="M212.5,50.4h-5.1l-0.2-1.5c-0.4,0.7-1,1.2-1.8,1.6c-0.8,0.4-1.8,0.6-2.9,0.6c-0.8,0-1.6-0.1-2.5-0.4
			c-0.9-0.3-1.6-0.7-2.3-1.2c-0.7-0.6-1.3-1.3-1.7-2.1c-0.5-0.8-0.7-1.8-0.7-2.9c0-1.4,0.3-2.5,1-3.3c0.7-0.8,1.5-1.4,2.5-1.8
			c1-0.4,2.1-0.7,3.4-0.8c1.2-0.1,2.4-0.2,3.4-0.2h1.4v-0.2c0-0.9-0.3-1.6-0.9-1.9s-1.5-0.5-2.7-0.5c-1.3,0-2.4,0.2-3.3,0.5
			c-0.9,0.3-1.7,0.6-2.3,1l-1.9-4c0.2-0.1,0.5-0.3,1-0.5c0.5-0.2,1-0.4,1.7-0.6c0.7-0.2,1.4-0.4,2.3-0.6c0.8-0.2,1.8-0.2,2.7-0.2
			c1.2,0,2.3,0.1,3.4,0.4c1.1,0.3,2,0.8,2.8,1.4c0.8,0.6,1.4,1.5,1.9,2.5c0.5,1,0.7,2.2,0.7,3.7V50.4z M207.1,42.2
			c-1.3,0-2.3,0.1-3.1,0.2c-0.8,0.1-1.4,0.3-1.9,0.5c-0.5,0.2-0.8,0.5-1,0.8c-0.2,0.3-0.3,0.6-0.3,1.1c0,0.6,0.2,1.1,0.6,1.5
			c0.4,0.4,1,0.6,2,0.6c0.9,0,1.6-0.2,2.2-0.6c0.6-0.4,1.1-0.9,1.5-1.6V42.2z"/>
		<path d="M227.1,37.3c-0.5-0.5-1.1-0.8-1.7-1.1c-0.7-0.3-1.3-0.4-1.9-0.4c-0.3,0-0.5,0-0.8,0c-0.3,0-0.6,0.1-0.8,0.2
			c-0.2,0.1-0.5,0.2-0.6,0.4c-0.2,0.2-0.2,0.5-0.2,0.8c0,0.3,0.1,0.6,0.4,0.8c0.3,0.2,0.8,0.5,1.7,0.7l2.5,0.8
			c1.5,0.5,2.6,1.2,3.4,2.2c0.8,1,1.2,2.1,1.2,3.6c0,1.1-0.2,2.1-0.7,2.8c-0.5,0.8-1.1,1.4-1.8,1.8c-0.7,0.5-1.5,0.8-2.4,1
			c-0.9,0.2-1.7,0.3-2.5,0.3c-1.5,0-2.8-0.2-3.9-0.5c-1.2-0.4-2.4-1-3.5-2l2.6-3.5c0.8,0.5,1.6,0.9,2.3,1.2c0.7,0.3,1.4,0.4,2.2,0.4
			c0.9,0,1.5-0.1,1.8-0.4c0.3-0.3,0.5-0.6,0.5-1.1c0-0.4-0.1-0.7-0.4-0.9c-0.3-0.2-0.8-0.5-1.7-0.7l-2.5-0.8
			c-1.5-0.5-2.7-1.2-3.4-2.2c-0.8-1-1.1-2.1-1.1-3.3c0-1,0.2-1.9,0.7-2.6c0.5-0.8,1-1.4,1.7-1.9c0.7-0.5,1.5-0.9,2.4-1.1
			c0.9-0.3,1.8-0.4,2.6-0.4c1.5,0,2.8,0.2,3.8,0.6c1,0.4,2,0.9,2.8,1.5L227.1,37.3z"/>
		<path d="M239.6,44.4c0,0.3,0.1,0.6,0.2,0.9c0.1,0.3,0.3,0.5,0.6,0.6c0.3,0.2,0.6,0.2,1,0.2c0.4,0,0.7-0.1,0.9-0.2
			c0.3-0.1,0.6-0.3,0.9-0.5l2.1,4c-0.5,0.3-1.2,0.6-2,0.8c-0.8,0.2-1.6,0.3-2.5,0.3c-1.1,0-2.1-0.2-3-0.6c-0.8-0.4-1.5-0.9-2.1-1.6
			c-0.6-0.6-1-1.4-1.2-2.2c-0.3-0.8-0.4-1.6-0.4-2.4v-7.3H231v-4.5h3.2l0.5-5.4h4.9v5.4h4.4v4.5h-4.4v6.8
			C239.6,43.7,239.6,44.1,239.6,44.4z"/>
		<path d="M252,43.1c0.1,1.1,0.5,2,1.3,2.6c0.8,0.7,1.8,1,3,1c1,0,1.9-0.1,2.7-0.4c0.7-0.3,1.5-0.7,2.3-1.3l2.8,3.4
			c-1.3,1.1-2.7,1.9-4,2.2c-1.4,0.4-2.6,0.5-3.9,0.5c-1.5,0-2.8-0.2-3.9-0.7c-1.2-0.5-2.2-1.1-3-2c-0.8-0.9-1.5-1.9-1.9-3.1
			c-0.5-1.2-0.7-2.6-0.7-4.1c0-1.4,0.2-2.7,0.7-3.9c0.5-1.2,1.1-2.3,1.9-3.2c0.8-0.9,1.8-1.6,2.9-2.1c1.2-0.5,2.4-0.8,3.8-0.8
			c1.5,0,2.9,0.3,4.1,0.8c1.2,0.5,2.1,1.2,2.9,2.1c0.8,0.9,1.3,1.9,1.7,3.2c0.4,1.2,0.6,2.5,0.6,4c0,0.4,0,1-0.1,1.8H252z
			 M259.6,39.1c0-1.1-0.4-2-0.9-2.5c-0.6-0.5-1.5-0.8-2.8-0.8c-1.2,0-2.1,0.3-2.7,1c-0.6,0.6-1,1.4-1.1,2.4H259.6z"/>
		<path d="M268,32.1h5.1l0.2,1.6c0.5-0.8,1.1-1.3,1.8-1.6c0.7-0.3,1.6-0.5,2.5-0.5c0.9,0,1.7,0.1,2.6,0.4l-1,4.6
			c-0.7-0.1-1.3-0.2-1.9-0.2c-1.2,0-2.2,0.3-2.9,0.9c-0.7,0.6-1,1.5-1,2.8v10.4H268V32.1z"/>
	</g>
</g>
</svg>
