<svg xmlns="http://www.w3.org/2000/svg" width="682.667" height="682.667" viewBox="0 0 512 512"><path fill="#8eb9e8" d="M242.5 21.7c-56.6 3.4-109 26.5-149.4 65.8-22.7 22.1-38.9 44.9-51 72.2-21.7 48.6-26.5 102.2-13.6 153.4 4.7 18.4 13.6 41.1 22 55.9l3.6 6.4-15.9 44.1-16.7 47.1c-1.8 9.1 6.3 21 16.1 23.3 3.4.8 6.3.9 8.9.3 2.2-.5 23.4-8 47-16.6 36.2-13.2 43.3-15.5 44.9-14.5 9.4 5.7 28.3 14.1 42.6 19.1 74 25.3 157.7 11.1 220-37.5 9.2-7.2 26.9-24.6 35.8-35.2 47.4-56.4 65.1-134.7 46.7-207.1-8.5-33.4-25.3-66.5-46.7-91.9-8.9-10.6-26.6-28-35.8-35.2-44.6-34.8-102.9-53-158.5-49.6z"/></svg>