<svg xmlns="http://www.w3.org/2000/svg" width="512" height="512" xmlns:v="https://vecta.io/nano">
  <path d="M0 0v512h251v-1c-16.746-5.709-11-33.1-11-47V320h-93c-11.041 0-26.202 3.094-32.991-8.015-4.586-7.504-.511-15.895 2.685-22.985L138 241l79.14-178 19.554-44c3.369-7.473 6.142-14.828 14.306-18l-23-1h-51H0z" fill="#fff"/>
  <path d="M240 320v85 79c0 9.574-2.081 22.458 9.004 26.852 23.583 9.348 32.806-31.581 39.69-46.852l79.537-179 26.193-59c3.538-8.133 8.898-18.294 3.567-26.985C391.61 188.614 375.363 192 365 192h-93V50c0-12.452 5.41-40.467-7.04-47.91-6.993-4.18-17.211-2.331-22.171 4.005C231.691 20.27 225.601 42.501 218.424 59l-82.193 185-19.537 44c-3.254 7.219-7.26 16.151-3.237 23.985C119.275 323.317 135.531 320 146 320h94z" fill="#ffc061"/>
  <path d="M261 0v1c16.746 5.709 11 33.1 11 47v144h92c10.879 0 26.129-3.186 33.347 7.015 5.442 7.691 1.348 16.465-2.041 23.985l-21.73 49-78.27 176-19.075 43c-3.544 7.767-6.243 15.821-14.231 20v1h250V0H261z" fill="#fff"/>
</svg>
