<svg xmlns="http://www.w3.org/2000/svg" viewBox="0 0 900 267" preserveAspectRatio="xMidYMid meet" fill="#999" xmlns:v="https://vecta.io/nano"><path d="M162 62.6l-16.5 14.2c-20.2 17.3-29.5 25.6-29.5 26.5 0 .7 1.5 2.8 3.3 4.8l8.5 9.8c2.9 3.3 6 6.1 6.9 6.1 2 0 2.5-.4 28.7-23.4 13.3-11.7 14.1-12.2 16.4-10.5 2.8 2.2 22.6 19.3 23.7 20.4 4.8 5.1 15.8 13.6 17.3 13.3 2.5-.4 18.2-18.1 18.2-20.4 0-1.1-3-4.3-6.8-7.5l-16.3-14L201 69l-7.5-6.5c-10-8.9-14.6-12.5-15.7-12.5-.7.1-7.8 5.7-15.8 12.6zm267.4 13c-1.2.3-3.4 1.8-5 3.5-2.4 2.6-2.8 3.8-2.9 8.9 0 5.4.3 6.3 3.3 9.2 2.9 3 3.8 3.3 9.2 3.3 5.1 0 6.3-.4 8.9-2.9 5.2-5 5.1-14.4-.2-19.4-2.3-2.2-9.1-3.5-13.3-2.6zm-101.2 5.5c-15.7 2.3-30.4 12.4-37.1 25.7-7.7 15.2-7.9 34.6-.5 49.6 5.3 10.8 19.9 22 32.1 24.6 18 3.9 36.5-.3 49.6-11.2 7.5-6.3 7.7-7.2 2.5-12.5-2.3-2.5-6-5.8-8-7.4l-3.7-3-5.8 4.5c-5.7 4.4-14.2 7.6-20.3 7.6-6.7-.1-15.6-4.4-19.7-9.7-10.2-13-7.7-31 5.5-40 5.3-3.7 5.6-3.8 14.6-3.8 7.7 0 9.8.4 13.8 2.4 2.6 1.4 5.8 3.5 7 4.8 3.5 3.7 5.9 2.9 12.6-4.3 8-8.4 8-9.9.5-15.7-9.3-7-15.9-9.9-26.4-11.6-7.3-1.2-7.8-1.2-16.7 0zm58.3.1c-.3.7-.4 23.6-.3 50.8l.3 49.5H398h11.5V131 80.5l-11.3-.3c-8.4-.2-11.4.1-11.7 1zm150.1-.3c-.5.7-.9 74-.6 99.4 0 1.6 1 1.7 11.8 1.5l11.7-.3.5-12.9c.4-9.1.9-13.1 1.7-13.4 1.5-.4 5.3 3.6 15.5 16.8l7.4 9.5 12.9.3c7 .1 13.2-.1 13.8-.7.5-.5-3.2-6.1-9.5-14.1-18.8-24.2-20.8-26.9-20.8-28.6 0-.9 2.8-4.2 6.3-7.4 16.3-15.2 22.9-21.9 22.3-22.9-.8-1.2-23.9-1.5-26.7-.3-1 .4-6.1 4.7-11.4 9.7-5.4 4.9-10.1 9-10.4 9s-.8-10.4-1.1-23l-.5-23-11.2-.3c-6.3-.1-11.4.1-11.7.7zm82.6.3c-.9.9-1.2 8.7-1.2 30.9 0 40.6 1.1 48.1 8.9 57.8 7.4 9.4 20.8 14.6 35.1 13.8 18.9-1.1 30.6-8.9 37.1-24.7 2.1-5.2 2.2-7.2 2.7-40.1.3-25.3.1-35.2-.7-36.8-1.1-2.1-1.8-2.1-12.9-1.9l-11.7.3-.5 33.5c-.4 28.6-.7 33.9-2.1 36.5-2.5 4.4-4.9 6.2-9.9 7.5-6.5 1.5-12.4-.4-16.4-5.4l-3.1-3.8-.5-34.1-.5-34.2-11.5-.3c-8.1-.2-11.9.1-12.8 1zM487.5 106c-12.3 1.4-23.6 9.3-29.1 20.5-2.5 5.1-2.9 7.4-3.2 15.7-.6 14.4 2.9 23.5 12 31.2 11.7 10.1 31.4 12.1 46.2 4.8 4.9-2.4 14.6-11.3 14.6-13.4 0-1.5-2-4.8-2.9-4.8-.5 0-3.9-1.8-7.7-4l-6.8-3.9-4.1 3.8c-9.4 8.6-24.5 5.2-27.6-6.2-1.6-6.1-.3-12.9 3.2-16.5 3.2-3.3 8.7-6.2 11.6-6.2 4.1 0 9.7 2.3 13.2 5.6 2.1 1.9 4.3 3.4 4.9 3.4s3.4-1.4 6.2-3c2.8-1.7 5.5-3 6-3s1.8-.9 2.8-2.1c1.8-1.8 1.8-2.3.5-4.9-.7-1.6-3.8-5.1-6.8-7.8-8.4-7.7-19.2-10.7-33-9.2zm266 .5c-.5.1-3.6 1-6.7 2-3.2.9-6 2.1-6.4 2.6-1 1.7-4.2.9-5.8-1.6-1.6-2.4-2.1-2.5-11-2.5-6.8 0-9.7.4-10.5 1.4-1.4 1.7-1.7 102.4-.3 103.8.5.5 5.6.7 11.3.6l10.4-.3.3-16.8c.3-18.9.1-18.6 8.3-14.5 3.1 1.6 6.7 2.3 12.4 2.6 6.9.3 8.8 0 13.5-2.1 12.9-5.8 20.5-15.7 22.9-29.6 1.1-6.4-.1-16.7-2.6-22.6s-8.1-13-13.1-16.6c-5.6-4-18.6-7.7-22.7-6.4zm3.6 22.6c9.2 2.8 14.5 14.8 10.3 23.2-2.3 4.5-4.4 6.6-8.6 8.8-4.7 2.4-8.9 2.4-13.6 0s-6.6-4.6-8.8-10c-1.5-3.8-1.6-5-.5-8.9 1.6-6.2 4.7-10.1 9.5-12.3s6.6-2.3 11.7-.8zm-334.4-21.4c-.4.3-.7 17.2-.7 37.4 0 28.5.3 36.8 1.3 37.1.6.2 5.9.1 11.7-.2l10.5-.5.3-35.9c.2-25.6-.1-36.3-.9-37.2-.8-1-3.9-1.4-11.4-1.4-5.6 0-10.5.3-10.8.7zm-298.9 53.8c-6 4.7-10.8 9-10.8 9.6s4.2 5.2 9.3 10.3c11.8 11.9 20.2 17.3 34.7 22.2 8.6 2.9 33.1 2.7 41.8-.4 7.7-2.7 14.4-6 20.8-10.4 6.1-4 22.4-20.3 22.4-22.3 0-.8-3-3.7-6.7-6.4l-10.9-8.1c-2.3-1.6-4.3-3-4.5-3s-4.1 3.6-8.5 7.9c-13.5 13-26.6 17.6-41.8 14.6-10-1.9-17.2-6-26.5-15.2-4.1-4-7.7-7.3-8-7.3s-5.4 3.9-11.3 8.5z"/></svg>