<svg xmlns="http://www.w3.org/2000/svg" width="150" height="72" viewBox="-3 0 72 72"><path style="stroke:none;fill-rule:nonzero;fill:#999;fill-opacity:1" d="M16.16 11.32c-1.144.207-1.93.582-3.12 1.489-1.27.953-2.743 2.757-3.903 4.777-.25.43-1.426 2.805-1.664 3.352-.067.14-.16.382-.227.519-.422.969-.742 1.848-1.293 3.504a79.89 79.89 0 0 0-2.555 9.84c-.07.375-.175.926-.238 1.238-.238 1.234-.297 1.547-.36 2.04-.03.288-.105.737-.144 1-.457 2.495-1.207 9.066-1.328 11.6-.016.391-.07 1.329-.121 2.083-.094 1.59-.246 5.941-.246 7.168 0 .62.031.879.11.941.074.066 1.074.082 3.538.074l3.43-.023.05-2.524c.063-3.214.216-7.336.317-9.078.051-.754.121-1.922.153-2.601.09-1.696.379-5.262.57-7 .047-.399.11-1.078.152-1.52.063-.808.145-1.48.367-3.16.368-2.758.528-3.863.68-4.64l.16-.958c.04-.289.114-.625.153-.753a1.61 1.61 0 0 0 .078-.465c0-.133.058-.453.12-.727.063-.273.169-.785.24-1.137.128-.605.226-1.007.44-1.918l.168-.68c.032-.152.137-.538.235-.84.094-.312.2-.69.238-.843.328-1.293 1.192-3.543 1.777-4.621.454-.855.95-1.527 1.477-2.016.29-.265.57-.48.625-.48.059 0 .207-.059.328-.121.57-.297 1.594 0 2.29.648.23.223 1.038 1.254 1.238 1.59.128.219.906 1.785 1.035 2.082.476 1.16.59 1.434.59 1.527 0 .055.046.223.113.368.12.289.512 1.562.726 2.386.504 1.88.586 2.23.946 4a87.34 87.34 0 0 1 .734 4.118c.074.441.176 1.113.242 1.488.063.379.117.808.117.96 0 .153.059.634.122 1.071.222 1.488.601 5.137.601 5.746 0 .856-.426.778 4.27.778 3.394 0 4.129-.016 4.203-.114.047-.054.11-.41.125-.777.066-1.04.41-4.246.64-5.992.067-.461.13-.985.145-1.16.055-.582.535-3.528.824-5.04.274-1.456.574-2.855.719-3.351.066-.207.113-.45.113-.52 0-.082.047-.296.113-.496.055-.191.16-.558.23-.816.345-1.207.4-1.39.474-1.574.046-.114.113-.313.152-.442.062-.265.27-.863.383-1.12.039-.087.129-.321.207-.52.37-.97 1.066-2.352 1.554-3.07.766-1.13 1.805-1.891 2.59-1.891.434 0 1.13.297 1.528.648.699.61 1.441 1.809 2.203 3.555.078.176.199.453.27.621.074.168.136.352.136.418 0 .062.047.23.113.375.192.457.344.887.489 1.383.07.265.183.64.238.84.191.687.527 2.015.71 2.855.571 2.594.626 2.914 1.212 6.508.175 1.078.543 3.879.718 5.52.07.636.184 1.59.247 2.117.066.53.113 1.16.113 1.402 0 .246.039.488.097.543.07.07.918.098 3.32.098 2.888 0 3.231-.016 3.278-.13.024-.074-.015-.495-.086-.945-.074-.437-.191-1.152-.258-1.566A90.43 90.43 0 0 0 55.473 35a5.643 5.643 0 0 1-.114-.71c0-.09-.047-.337-.113-.563A17.473 17.473 0 0 1 55 32.68c-.07-.352-.184-.825-.246-1.047a2.839 2.839 0 0 1-.113-.555c0-.078-.047-.324-.114-.55a42.28 42.28 0 0 1-.246-.926c-.144-.57-.242-.899-.61-2.16-.28-.962-.358-1.243-.741-2.403-.403-1.215-.45-1.336-.715-2l-.352-.918c-.11-.305-.191-.496-.449-1.105-.375-.88-1.184-2.536-1.484-3.055-.13-.227-.313-.535-.41-.715-.743-1.36-2.16-3.101-3.407-4.207-1.496-1.32-3.433-2-5.023-1.758-1.067.16-1.785.446-2.883 1.153-.824.527-1.984 1.644-2.742 2.644-.555.723-.985 1.32-.985 1.356 0 .015-.152.261-.335.543-.442.664-.665 1.062-1.375 2.503-.672 1.36-1.028 2.137-1.274 2.801a821.65 821.65 0 0 0-.742 1.957c-.203.54-.57 1.64-.715 2.121-.078.266-.191.618-.246.786-.066.16-.113.367-.113.449 0 .183-.282.55-.36.468-.03-.03-.09-.19-.12-.359a25.6 25.6 0 0 0-.36-1.223c-.16-.503-.32-1.03-.36-1.16a41.403 41.403 0 0 0-.793-2.199 27.993 27.993 0 0 1-.304-.762c-.063-.175-.168-.43-.223-.558-.062-.137-.168-.387-.25-.563A82.155 82.155 0 0 0 26.336 20c-.23-.504-.465-.992-.504-1.078-.039-.09-.16-.305-.258-.48-.101-.176-.254-.45-.344-.602a12.557 12.557 0 0 0-.375-.617 3.045 3.045 0 0 1-.214-.375c0-.024-.168-.282-.375-.567-.22-.297-.442-.617-.504-.707-.516-.758-1.899-2.215-2.723-2.863-.543-.43-1.48-.941-2.16-1.184-.375-.129-1.574-.328-1.918-.312-.152 0-.512.05-.8.105Zm0 0"/><path style="stroke:none;fill-rule:nonzero;fill:#999;fill-opacity:1" d="M10.36 43.055a3.414 3.414 0 0 0-.122.699c0 .156-.054.504-.117.766a4.945 4.945 0 0 0-.121.761c0 .153-.047.567-.113.918-.063.352-.176 1-.246 1.442-.075.437-.16.976-.2 1.191-.035.223-.05.45-.027.504.035.078.274.105.906.105h.864l.09-.265c.054-.153.124-.551.167-.903.04-.343.086-.687.11-.753.023-.063.082-.422.129-.793.12-.993.289-1.07.52-.239.128.442.265.895.488 1.633a9.3 9.3 0 0 1 .183.68c.137.613.191.648 1.09.625l.793-.028.133-.359c.074-.2.203-.574.273-.84.07-.261.184-.625.238-.8.188-.606.356-1.2.403-1.422.031-.16.086-.215.183-.2.094.016.153.145.2.461.03.242.097.692.144 1 .047.305.121.832.152 1.16.063.625.2 1.008.352 1.059.047.016.434.008.848-.016l.761-.043-.015-.558a14.38 14.38 0 0 0-.137-1.238 62.443 62.443 0 0 1-.25-1.641 66.683 66.683 0 0 0-.215-1.48c-.039-.29-.113-.762-.144-1.067-.032-.293-.106-.59-.16-.652-.079-.098-.329-.121-1.239-.121h-1.136l-.176.496c-.098.277-.207.605-.258.742-.047.129-.11.344-.152.48-.063.227-.11.368-.329 1.016a7.408 7.408 0 0 0-.14.504c-.035.129-.09.226-.13.21-.089-.042-.28-.495-.472-1.128-.289-.992-.625-2.05-.687-2.16-.047-.098-.281-.13-1.184-.145l-1.129-.023Zm15.367-.345c-.07.114-.086 6.52-.016 6.634.09.144 4.21.136 4.793-.016 1.266-.328 1.894-.902 2.383-2.168.113-.297.152-.601.152-1.16-.008-.656-.031-.832-.23-1.297-.465-1.086-1.145-1.656-2.329-1.95-.503-.12-4.68-.16-4.753-.042Zm4.218 1.907c.145.078.336.215.438.305.219.183.496.773.496 1.047 0 .289-.238.847-.473 1.093-.383.426-.718.54-1.605.54H28V44.48h.848c.656 0 .906.032 1.097.137Zm24.512-1.722c-.074.042-.098.859-.098 3.257 0 1.758.024 3.223.067 3.254.078.09 1.84.043 1.933-.054.09-.086.075-6.32-.023-6.399-.078-.082-1.77-.129-1.879-.058Zm7.305-.032c-.196.016-.387.075-.418.121-.032.055-.063.344-.063.649 0 .488-.015.535-.136.488-1.184-.48-1.825-.465-2.786.055-.261.144-.734.633-.902.937-.168.293-.336 1.016-.336 1.43.016 1.234.559 2.258 1.473 2.754.445.238.543.262 1.176.254.628 0 .71-.016 1.07-.262.406-.273.601-.281.601-.008 0 .133.055.16.383.168.903.016 1.414-.023 1.473-.113.031-.055.062-1.512.062-3.238 0-2.442-.023-3.145-.093-3.176-.168-.05-1.114-.082-1.504-.059Zm-.985 2.57c.375.27.543.743.489 1.352-.051.504-.211.817-.54 1.031-.351.239-.605.23-.972-.023-.738-.504-.738-1.898 0-2.402.375-.254.629-.239 1.023.043Zm3.461-1.679c0 .719.028.879.13.918.206.082.554.055.679-.055.137-.113.351-.785.433-1.36l.055-.378h-1.297Zm-20.278-.082c-.51.168-.839.351-1.03.558-.25.274-.434.22-.465-.132l-.024-.297h-1.84v5.597l.36.043c.2.024.648.024 1 0l.64-.043.04-1.734c.047-1.992.07-2.09.742-2.297.328-.101.41-.094.722.024.56.218.614.402.614 2.25 0 .847.023 1.597.05 1.672.04.101.208.128 1 .128.942 0 .95 0 1-.203.024-.101.032-1.117.016-2.254l-.031-2.062-.219-.379c-.512-.863-1.55-1.215-2.574-.871Zm-23 .038c-.608.122-1.038.38-1.44.825-.582.664-.68.961-.672 2.106 0 .793.023 1.054.136 1.254.43.808.926 1.265 1.641 1.496.313.105.672.144 1.422.136.898 0 1.058-.023 1.433-.199.543-.25 1.07-.734 1.313-1.207.27-.555.191-.601-.906-.578-.88.016-.895.023-1.207.273-.559.465-1.328.313-1.649-.312-.351-.68-.23-1.649.266-2.121.2-.192.297-.223.695-.223.406 0 .496.031.762.266l.293.261.898-.023c.856-.023.895-.031.918-.2.059-.359-.648-1.218-1.261-1.542-.547-.29-1.786-.395-2.641-.211Zm14.84.009c-1.585.394-2.495 1.984-2.09 3.64.22.856.724 1.504 1.458 1.88.457.234.512.241 1.55.241 1.044 0 1.098-.007 1.555-.242.461-.23 1.247-1 1.247-1.215 0-.062.054-.214.12-.351.2-.383.176-1.742-.046-2.336-.211-.55-.77-1.176-1.242-1.375-.801-.352-1.766-.441-2.551-.242Zm1.56 1.68c.32.312.449.984.32 1.671-.078.442-.145.57-.367.77-.344.297-.786.328-1.114.062-.8-.62-.633-2.496.242-2.726.301-.078.704.015.918.222Zm12-1.689c-.817.153-1.215.435-1.567 1.114-.207.406-.121.457.95.457.706 0 .921-.035 1.179-.16.414-.219 1.117-.219 1.3-.016.243.262.169.48-.199.649-.375.168-.953.316-1.503.406-1.094.168-1.696.528-1.946 1.184-.238.601-.117 1.168.328 1.64.41.43.778.559 1.586.551.778-.008 1.23-.137 1.688-.472.265-.2.289-.192.375.16l.058.226.895-.023.894-.028.028-2.07c.015-1.785 0-2.129-.114-2.441a1.729 1.729 0 0 0-.832-.965c-.585-.297-2.082-.402-3.12-.211ZM51.413 47c.09.246-.148.84-.445 1.078-.235.195-.36.242-.68.242-.504 0-.687-.152-.687-.566 0-.348.054-.395.796-.691.532-.208.946-.231 1.016-.063Zm15.825-3.312c-.62.136-1.031.382-1.3.777-.227.328-.258.445-.258.879 0 .543.16.968.496 1.273.207.192.832.414 1.785.63.887.202 1.078.304 1.078.585 0 .344-.215.488-.75.488-.41 0-.48-.023-.672-.242-.21-.223-.25-.238-1.082-.27-.48-.023-.918-.015-.984.008-.153.055-.145.207.035.528.3.558.453.703.957.953.512.238.57.246 1.555.238 1.23 0 1.68-.129 2.191-.633.664-.636.742-1.687.191-2.359-.136-.16-.39-.36-.578-.445-.382-.176-1.375-.418-1.703-.418-.27 0-.734-.215-.793-.367-.062-.16.274-.497.555-.543.285-.06.75.19.816.437.055.207.246.242 1.145.219.871-.028.91-.067.644-.64a1.963 1.963 0 0 0-.804-.876c-.504-.27-1.801-.383-2.524-.222ZM25.84 50.719c-.086.058-.106.234-.086.816.016.41.047 1.899.078 3.305l.047 2.558H33l.047-3.277c.023-2.043.016-3.32-.031-3.387-.055-.07-.856-.093-3.567-.093-1.922.007-3.547.039-3.61.078Zm24.808-.009c-.09.06-.105.38-.054 1.817.023.97.07 3.192.093 4.953.032 1.758.09 3.262.13 3.336.062.137.312.145 3.495.145 2.934 0 3.442-.016 3.528-.121.082-.098.07-.945-.04-4.098-.073-2.191-.175-4.453-.226-5.023l-.094-1.04-3.359-.015c-1.848-.016-3.41.008-3.473.047ZM60.8 55.648c-.89.375-1.464 1.032-1.71 1.946-.531 1.918 1.422 3.832 3.316 3.254.762-.23 1.371-.688 1.664-1.239.211-.41.41-1.097.41-1.418 0-.312-.222-1.062-.375-1.238-.058-.066-.105-.16-.105-.21 0-.177-.64-.727-1.121-.966-.445-.226-.582-.257-1.152-.257-.391.007-.758.054-.926.128Zm1.977.809c1.176.68 1.293 2.473.223 3.344-.207.176-.52.328-.848.414-.488.129-.543.129-.945-.008-1.16-.375-1.809-1.605-1.406-2.664.152-.406.422-.824.535-.824.031 0 .062.648.062 1.433 0 1.36.008 1.442.16 1.489.32.101.473-.082.497-.618.015-.414.05-.503.168-.527.183-.039.472.223.793.719.265.402.441.504.703.426.226-.075.203-.176-.16-.703l-.329-.473.29-.313c.433-.48.351-.992-.2-1.28-.113-.056-.566-.118-1.015-.138-.457-.023-.825-.062-.825-.101 0-.106.48-.344.801-.403.461-.085 1.133.016 1.496.227Zm-.687.992c.14.278.015.446-.371.512-.528.07-.68.008-.68-.32 0-.336.121-.41.602-.375.254.023.382.078.449.183Zm0 0"/></svg>