<?xml version="1.0" encoding="UTF-8"?>
<svg version="1.1" viewBox="0 0 1200 480" xmlns="http://www.w3.org/2000/svg" xmlns:cc="http://creativecommons.org/ns#" xmlns:dc="http://purl.org/dc/elements/1.1/" xmlns:rdf="http://www.w3.org/1999/02/22-rdf-syntax-ns#">
<metadata>
<rdf:RDF>
<cc:Work rdf:about="">
<dc:format>image/svg+xml</dc:format>
<dc:type rdf:resource="http://purl.org/dc/dcmitype/StillImage"/>
</cc:Work>
</rdf:RDF>
</metadata>
<path d="m0 0v480h1200v-480h-1200z" fill-opacity="0"/>
<path d="m369 203-8 2c-3.22-13.913-9.477-27.443-14-41-3.144-9.422-6.518-18.866-10.427-28-5.539-12.942-32.094-47.298-37.133-16-0.528 3.275-0.578 6.692-0.35 10 1.741 25.316 16.646 45.022 30.63 65 2.254 3.22 17.399 21.067 9.206 23.033-6.03 1.447-12.999-8.241-16.926-11.605-13.929-11.932-29.376-23.207-46-31.108-24.864-11.816-52.773-16.857-80-11.516-11.11 2.18-21.172 7.235-32 10.196-1.444-7.776 1.224-20.362-4.653-26.566-6.233-6.581-20.993 0.63-27.347 3.814-18.805 9.426-41.203 45.972-10 56.988 4.906 1.732 9.872 1.763 15 1.764-5.491 7.634-14.154 12.715-21 19.09-15.969 14.869-31.172 31.092-40.742 50.91-3.4056 7.052-11.658 26.33-2.034 31.968 5.4928 3.218 11.909-3.482 15.776-6.568 12.343-9.854 25.29-18.568 39-26.399 38.198-21.818 84.566-28.464 127-16.849 50.486 13.819 91.793 48.823 122.87 89.848 7.406 9.777 25.643 35.94 41.086 26.142 7.701-4.886 5.537-17.76 3.323-25.142-6.863-22.879-30.153-35.018-38.279-56 7.453-1.538 14.936-3.592 22-6.453 5.249-2.126 10.469-4.894 14.996-8.308 24.318-18.337-1.173-48.145-16.996-61.814-4.573-3.95-13.124-8.749-15.397-14.515-2.663-6.756 0.397-19.484 0.397-26.91 0-19.092-0.971-39.423-9.32-57-4.296-9.043-11.14-18.212-20.68-22.07-5.445-2.2017-11.329-2.5863-13.276 4.0745-4.891 16.73 5.368 41.272 10.609 56.995 4.629 13.887 8.7 27.915 12.667 42z" fill="#999"/>
<path d="m354 98 1 1-1-1m-7 1 1 1-1-1z" fill="#cd5252"/>
<path d="m609 272h1c33.037 44.855 116.8-6.504 82.779-56-21.667-31.522-75.268-29.347-92.146 6-2.977 6.237-4.787 14.071-4.169 21 0.376 4.227 3.083 10.532 2.16 14.561-0.866 3.784-6.924 8.085-10.62 8.559-9.326 1.195-9.002-15.417-9.004-21.12-8e-3 -20.108 0.39-60.101-31-49.637-4.023 1.341-7.675 3.54-11 6.155-5.505 4.329-10.013 9.746-13.974 15.482-5.083 7.361-10.53 15.336-13.026 24-3.694-12.496-0.395-30.129 0.83-43 1.811-19.029 1.17-38.873 1.17-58 0-8.012 2.283-29.591-4.303-35.03-13.361-11.033-24.389 4.09-25.527 16.03-3.94 41.345-1.198 82.653-0.185 124 0.254 10.343 1.026 20.736 2.44 31 0.494 3.587 0.424 8.381 3.854 10.543 4.386 2.766 13.597 2.247 17.019-1.822 3.594-4.273 4.977-11.598 7.126-16.721 4.519-10.768 9.52-21.315 16.095-31 2.845-4.191 10.107-15.021 16.372-12.607 7.22 2.781 4.701 16.727 5.395 22.607 1.117 9.468 0.974 19.306 5.539 28 7.301 13.904 26.033 16.214 39.175 9.622 5.677-2.848 10.381-7.485 14-12.622z" fill="#999"/>
<path d="m491 103 1 1-1-1z" fill="#ab5555"/>
<path d="m505 103 1 1-1-1z" fill="#cd5252"/>
<path d="m366 104 1 1-1-1z" fill="#ab5555"/>
<path d="m367 105 1 1-1-1m120 0 1 1-1-1m-182 2 1 1-1-1z" fill="#cd5252"/>
<path d="m313 107 1 1-1-1z" fill="#ab5555"/>
<path d="m484 107 1 1-1-1z" fill="#810101"/>
<path d="m371 109 1 1-1-1m112 1 1 1-1-1m-182 2 1 1-1-1m73 1 1 1-1-1m2 3 1 1-1-1m106 2 1 1-1-1m-154 3 1 1-1-1m183 5 1 1-1-1m-30 5 1 1-1-1m-98 1 1 1-1-1m-84 1 1 1-1-1z" fill="#cd5252"/>
<path d="m349 138 1 1-1-1z" fill="#ab5555"/>
<path d="m300 139 1 1-1-1m86 5 1 1-1-1m-35 1 1 1-1-1m-49 2 1 1-1-1z" fill="#cd5252"/>
<path d="m133 150 1 1-1-1z" fill="#ab5555"/>
<path d="m303 150 1 1-1-1z" fill="#cd5252"/>
<path d="m131 151 1 1-1-1z" fill="#810101"/>
<path d="m480 152 1 1-1-1m-137 2 1 1-1-1z" fill="#cd5252"/>
<path d="m162 155 1 1-1-1z" fill="#810101"/>
<path d="m123 156 1 1-1-1m184 4 1 1-1-1m81 0 1 1-1-1m-271 1 1 1-1-1z" fill="#cd5252"/>
<path d="m215 161 1 1-1-1z" fill="#ab5555"/>
<path d="m216 161v1h6l-6-1m-100 1 1 1-1-1m87 0 1 1-1-1z" fill="#cd5252"/>
<path d="m308 162 1 1-1-1z" fill="#ab5555"/>
<path d="m197 163 1 1-1-1z" fill="#cd5252"/>
<path d="m309 164 1 1-1-1z" fill="#810101"/>
<path d="m357 164 1 1-1-1z" fill="#ab5555"/>
<path d="m185 166 1 1-1-1m67 0 1 1-1-1z" fill="#cd5252"/>
<path d="m310 166 1 1-1-1z" fill="#810101"/>
<path d="m182 167 1 1-1-1m176 0 1 1-1-1z" fill="#cd5252"/>
<path d="m163 168 1 1-1-1z" fill="#810101"/>
<path d="m179 168 1 1-1-1z" fill="#cd5252"/>
<path d="m348 168 1 1-1-1z" fill="#810101"/>
<path d="m163 169v3h1l-1-3m348 0 1 1-1-1m-152 1 1 1-1-1m-46 1 1 1-1-1z" fill="#cd5252"/>
<path d="m349 171 1 1-1-1z" fill="#ab5555"/>
<path d="m511 171 1 1-1-1m-240 2 1 1-1-1m-163 1 1 1-1-1m242 0 1 1-1-1m-33 3 1 1-1-1m34 0 1 1-1-1m-70 1 1 1-1-1m752 0 1 1-1-1z" fill="#cd5252"/>
<path d="m956 251c12.556 2.435 24.593 4.235 37-0.24 16.5-5.951 26.02-24.783 16.24-40.745-21.224-34.606-83.54-9.606-85.201 26.985-1.759 38.752 40.097 62.616 74.961 48.547 25.63-10.342 39.57-36.624 48-61.547 4.54 1.276 20.85 1.58 22.58 6.303 1.41 3.827-3.95 12.061-5.38 15.697-5.35 13.641-8.45 33.214 7.8 40.95 24.77 11.793 47.82-15.448 55.79-35.95 1.42-3.656 3.74-22.364-2.9-22.364-4.15 0-7.48 9.409-9.32 12.364-6.17 9.925-14.58 25.29-27.57 26 0.15-17.318 14.88-31.605 13.96-49-1.24-23.428-35.15-8.664-47.64-18.09-5.19-3.915-3.1-13.603-8.53-18.352-15.98-13.965-24.78 12.142-20.23 24.442 1.57 4.231 7.56 8.704 7.51 13.09-0.05 5.128-4.52 11.499-6.85 15.91-12.68 24.01-52.177 49.831-70.22 16z" fill="#999"/>
<path d="m1044 180 1 1-1-1z" fill="#ab5555"/>
<path d="m322 184 1 1-1-1z" fill="#810101"/>
<path d="m293 185 1 1-1-1z" fill="#cd5252"/>
<path d="m364 186 1 1-1-1z" fill="#ab5555"/>
<path d="m325 188 1 1-1-1m-26 1 1 1-1-1z" fill="#cd5252"/>
<path d="m1024 189 1 1-1-1z" fill="#810101"/>
<path d="m1050 189 1 1-1-1m-748 2 1 1-1-1z" fill="#ab5555"/>
<path d="m713 193 1 1-1-1z" fill="#810101"/>
<path d="m735 282c43.076 22.698 100.44-28.266 64.699-69.999-4.622-5.397-10.361-9.562-16.699-12.731-7.653-3.827-15.512-5.267-24-5.27-11.614-4e-3 -19.638 3.163-30 8-0.297-9.11-15.025-13.733-19.486-4.867-5.79 11.508-2.487 30.288-3.684 42.867-2.987 31.388-2.07 63.597 0.081 95 0.774 11.308-0.443 23.995 2.813 34.985 2.979 10.059 24.591 14.538 27.167 2 5.909-28.76-0.891-60.9-0.891-89.985z" fill="#999"/>
<path d="m724 193 1 1-1-1z" fill="#810101"/>
<path d="m844 282c9.138 3.748 18.946 6.945 29 5.714 8.028-0.983 15.888-3.113 23-7.027 26.6-14.641 32.444-51.247 9.91-72.398-18.221-17.101-45.827-18.592-66.91-6.289-1.278-9.164-15.99-14.015-20.107-3.956-6.184 15.113-3.705 38.816-3.897 54.956-0.448 37.663-5.43 79.942 3.333 116.98 2.493 10.534 24.26 14.178 27.353 2.011 1.984-7.803 0.318-17.955 0.318-25.996 0-21.439-1.559-42.652-2-64z" fill="#999"/>
<path d="m357 194 1 1-1-1z" fill="#810101"/>
<path d="m768 194 1 1-1-1z" fill="#ab5555"/>
<path d="m973 194 1 1-1-1m4 0 1 1-1-1m-430 1 1 1-1-1m19 0 1 1-1-1m67 0 1 1-1-1z" fill="#cd5252"/>
<path d="m819 195 1 1-1-1z" fill="#ab5555"/>
<path d="m882 195 1 1-1-1z" fill="#810101"/>
<path d="m109 196 1 1-1-1m741 0 1 1-1-1z" fill="#ab5555"/>
<path d="m885 196 1 1-1-1m-575 1 1 1-1-1m78 0 1 1-1-1m239 0 1 1-1-1m261 0 1 1-1-1m-556 1 1 1-1-1m209 0 1 1-1-1z" fill="#cd5252"/>
<path d="m570 198 1 1-1-1z" fill="#ab5555"/>
<path d="m671 198 1 1-1-1m147 0 1 1-1-1z" fill="#cd5252"/>
<path d="m838 198 1 1-1-1z" fill="#ab5555"/>
<path d="m673 199 1 1-1-1z" fill="#cd5252"/>
<path d="m997 199 1 1-1-1z" fill="#ab5555"/>
<path d="m314 200 1 1-1-1z" fill="#810101"/>
<path d="m510 200 1 1-1-1z" fill="#cd5252"/>
<path d="m538 200 1 1-1-1z" fill="#810101"/>
<path d="m675 200 1 1-1-1m57 0 1 1-1-1z" fill="#cd5252"/>
<path d="m368 201 1 1-1-1z" fill="#810101"/>
<path d="m619 201 1 1-1-1m438 0 1 1-1-1m-944 1 1 1-1-1z" fill="#cd5252"/>
<path d="m360 202 1 1-1-1z" fill="#ab5555"/>
<path d="m788 202 1 1-1-1m-421 1 1 1-1-1m249 0 1 1-1-1z" fill="#cd5252"/>
<path d="m1003 203 1 1-1-1z" fill="#810101"/>
<path d="m1074 203 1 1-1-1z" fill="#cd5252"/>
<path d="m115 204 1 1-1-1z" fill="#ab5555"/>
<path d="m791 204 1 1-1-1z" fill="#810101"/>
<path d="m943 204 1 1-1-1m61 0 1 1-1-1m-101 2 1 1-1-1z" fill="#cd5252"/>
<path d="m388 207 1 1-1-1z" fill="#810101"/>
<path d="m611 207 1 1-1-1m-222 1 1 1-1-1m221 0 1 1-1-1m328 0 1 1-1-1m-329 1 1 1-1-1m328 0 1 1-1-1z" fill="#cd5252"/>
<path d="m608 210 1 1-1-1z" fill="#ab5555"/>
<path d="m936 210 1 1-1-1z" fill="#cd5252"/>
<path d="m1009 210 1 1-1-1z" fill="#810101"/>
<path d="m935 211 1 1-1-1z" fill="#cd5252"/>
<path d="m1028 211 1 1-1-1z" fill="#ab5555"/>
<path d="m480 212 1 1-1-1m46 0 1 1-1-1m383 0 1 1-1-1m-514 1 1 1-1-1z" fill="#cd5252"/>
<path d="m330 214 1 1-1-1z" fill="#810101"/>
<path d="m691 214 1 1-1-1m110 0 1 1-1-1z" fill="#cd5252"/>
<path d="m132 215 1 1-1-1z" fill="#810101"/>
<path d="m331 215 1 1-1-1z" fill="#cd5252"/>
<path d="m604 215 1 1-1-1z" fill="#810101"/>
<path d="m955 237c4.312 1.027 8.576 1.094 13 0.985 3.376-0.083 6.74-0.579 10-1.475 8.235-2.264 15.805-11.752 6.786-18.631-7.844-5.984-19.64-1.034-24.731 6.136-2.848 4.012-3.844 8.319-5.055 12.985m-312-20.351c-25.515 7.695-16.911 56.658 10 48.551 25.688-7.739 17.601-56.875-10-48.551z" fill="#fff"/>
<path d="m750 216 1 1-1-1z" fill="#cd5252"/>
<path d="m751 216.47c-29.902 5.652-20.719 55.114 10 49.192 28.214-5.439 20.3-54.92-10-49.192m109 0.061c-29.695 6.817-19.391 55.965 11 48.942 28.415-6.567 18.991-55.826-11-48.942z" fill="#fff"/>
<path d="m912 216 1 1-1-1z" fill="#cd5252"/>
<path d="m931 216 1 1-1-1z" fill="#810101"/>
<path d="m1033 216 1 1-1-1m-268 1 1 1-1-1z" fill="#cd5252"/>
<path d="m967 217 1 1-1-1m17 0 1 1-1-1z" fill="#810101"/>
<path d="m854 218 1 1-1-1z" fill="#cd5252"/>
<path d="m127 219 1 1-1-1z" fill="#810101"/>
<path d="m402 219 1 1-1-1m119 0 1 1-1-1m116 0 1 1-1-1z" fill="#cd5252"/>
<path d="m1033 219 1 1-1-1z" fill="#ab5555"/>
<path d="m126 220 1 1-1-1m475 0 1 1-1-1m278 0 1 1-1-1m108 0 1 1-1-1m-478 1 1 1-1-1z" fill="#cd5252"/>
<path d="m740 221 1 1-1-1z" fill="#810101"/>
<path d="m880 221 1 1-1-1m35 0 1 1-1-1z" fill="#cd5252"/>
<path d="m928 221 1 1-1-1z" fill="#810101"/>
<path d="m519 222 1 1-1-1z" fill="#ab5555"/>
<path d="m881 222 1 1-1-1z" fill="#cd5252"/>
<path d="m916 223 1 1-1-1z" fill="#810101"/>
<path d="m927 223 1 1-1-1z" fill="#cd5252"/>
<path d="m960 223 1 1-1-1z" fill="#ab5555"/>
<path d="m632 224 1 1-1-1m74 0 1 1-1-1m67 0 1 1-1-1m-653 1 1 1-1-1z" fill="#cd5252"/>
<path d="m664 225 1 1-1-1z" fill="#ab5555"/>
<path d="m697 225 1 1-1-1z" fill="#cd5252"/>
<path d="m846 225 1 1-1-1z" fill="#ab5555"/>
<path d="m884 226 1 1-1-1m74 0 1 1-1-1m100 0 1 1-1-1z" fill="#cd5252"/>
<path d="m516 227 1 1-1-1m62 0 1 1-1-1z" fill="#ab5555"/>
<path d="m598 227 1 1-1-1z" fill="#810101"/>
<path d="m735 227 1 1-1-1m-37 1 1 1-1-1m187 0 1 1-1-1m242 1 1 1-1-1m-83 1 1 1-1-1m-377 1 1 1-1-1m-39 1 1 1-1-1m296 0 1 1-1-1m-508 1 1 1-1-1m595 0 1 1-1-1m-594 1 1 1-1-1z" fill="#cd5252"/>
<path d="m815 234 1 1-1-1z" fill="#810101"/>
<path d="m887 234 1 1-1-1z" fill="#cd5252"/>
<path d="m109 235 1 1-1-1z" fill="#810101"/>
<path d="m668 235 1 1-1-1z" fill="#cd5252"/>
<path d="m842 235 1 1-1-1z" fill="#ab5555"/>
<path d="m955 235 1 1-1-1m-847 1 1 1-1-1z" fill="#cd5252"/>
<path d="m528 236 1 1-1-1z" fill="#810101"/>
<path d="m1118 236 1 1-1-1z" fill="#cd5252"/>
<path d="m107 237 1 1-1-1z" fill="#ab5555"/>
<path d="m627 237 1 1-1-1m346 0 1 1-1-1m68 0 1 1-1-1z" fill="#cd5252"/>
<path d="m106 238 1 1-1-1m918 0 1 1-1-1m-919 1 1 1-1-1z" fill="#ab5555"/>
<path d="m421 239 1 1-1-1m60 0 1 1-1-1z" fill="#cd5252"/>
<path d="m732 239 1 1-1-1z" fill="#ab5555"/>
<path d="m1008 239 1 1-1-1z" fill="#cd5252"/>
<path d="m104 240 1 1-1-1m-1 1 1 1-1-1z" fill="#810101"/>
<path d="m508.33 241.67 0.334 0.666-0.334-0.666z" fill="#010101"/>
<path d="m923 241 1 1-1-1z" fill="#ab5555"/>
<path d="m1115 241 1 1-1-1m-410 1 1 1-1-1m27 0 1 1-1-1z" fill="#cd5252"/>
<path d="m778 242 1 1-1-1z" fill="#810101"/>
<path d="m523 244 1 1-1-1m-98 1 1 1-1-1m385 0 1 1-1-1m254 0 1 1-1-1z" fill="#cd5252"/>
<path d="m522 246 1 1-1-1z" fill="#810101"/>
<path d="m1019 246 1 1-1-1z" fill="#cd5252"/>
<path d="m777 248 1 1-1-1z" fill="#810101"/>
<path d="m1092 248 1 1-1-1m-168 2 1 1-1-1z" fill="#cd5252"/>
<path d="m993 250 1 1-1-1z" fill="#ab5555"/>
<path d="m94 251 1 1-1-1z" fill="#cd5252"/>
<path d="m776 251 1 1-1-1z" fill="#810101"/>
<path d="m844 252 1 1-1-1z" fill="#ab5555"/>
<path d="m963 252 1 1-1-1z" fill="#810101"/>
<path d="m986 252 1 1-1-1m-101 1 1 1-1-1m85 0 1 1-1-1m43 0 1 1-1-1m20 0 1 1-1-1m57 0 1 1-1-1m36 0 1 1-1-1m-461 1 1 1-1-1z" fill="#cd5252"/>
<path d="m808 254 1 1-1-1z" fill="#ab5555"/>
<path d="m957 254 1 1-1-1z" fill="#810101"/>
<path d="m1012 254 1 1-1-1z" fill="#cd5252"/>
<path d="m631 255 1 1-1-1m143 0 1 1-1-1z" fill="#810101"/>
<path d="m1125 255 1 1-1-1z" fill="#cd5252"/>
<path d="m205 256 1 1-1-1m14 0 1 1-1-1z" fill="#ab5555"/>
<path d="m482 256 1 1-1-1m-289 1 1 1-1-1z" fill="#810101"/>
<path d="m430 257 1 1-1-1m417 0 1 1-1-1z" fill="#cd5252"/>
<path d="m1124 257 1 1-1-1z" fill="#810101"/>
<path d="m238 258 1 1-1-1z" fill="#ab5555"/>
<path d="m516 258 1 1-1-1z" fill="#810101"/>
<path d="m633 258 1 1-1-1m63 0 1 1-1-1m42 0 1 1-1-1m34 0 1 1-1-1m42.333 0.667 0.334 0.666-0.334-0.666m101.67-0.667 1 1-1-1z" fill="#cd5252"/>
<path d="m1030 258 1 1-1-1z" fill="#810101"/>
<path d="m634 259 1 1-1-1m137 0 1 1-1-1m331 0 1 1-1-1m-927 1 1 1-1-1z" fill="#cd5252"/>
<path d="m248 260 1 1-1-1z" fill="#810101"/>
<path d="m515 260 1 1-1-1m65 0 1 1-1-1m17 0 1 1-1-1m38 0 1 1-1-1z" fill="#cd5252"/>
<path d="m770 260 1 1-1-1z" fill="#ab5555"/>
<path d="m850 260 1 1-1-1m65 0 1 1-1-1z" fill="#cd5252"/>
<path d="m1101 260 1 1-1-1z" fill="#810101"/>
<path d="m252 261 1 1-1-1z" fill="#ab5555"/>
<path d="m596 261 1 1-1-1m40 0 1 1-1-1z" fill="#cd5252"/>
<path d="m769 261 1 1-1-1z" fill="#ab5555"/>
<path d="m851 261 1 1-1-1z" fill="#cd5252"/>
<path d="m1100 261 1 1-1-1z" fill="#ab5555"/>
<path d="m256 262 1 1-1-1m438 0 1 1-1-1m405 0 1 1-1-1m22 0 1 1-1-1m-957 1 1 1-1-1m475 0 1 1-1-1m106 0 1 1-1-1z" fill="#cd5252"/>
<path d="m766 263 1 1-1-1z" fill="#810101"/>
<path d="m929 263 1 1-1-1m-845 1 1 1-1-1m77 0 1 1-1-1m642 0 1 1-1-1m54 0 1 1-1-1m202 0 1 1-1-1m-901 1 1 1-1-1z" fill="#cd5252"/>
<path d="m552 265 1 1-1-1z" fill="#810101"/>
<path d="m751 265 1 1-1-1z" fill="#cd5252"/>
<path d="m871 265 1 1-1-1z" fill="#810101"/>
<path d="m912 265 1 1-1-1z" fill="#cd5252"/>
<path d="m992 265 1 1-1-1m103 0 1 1-1-1z" fill="#ab5555"/>
<path d="m155 266 1 1-1-1z" fill="#cd5252"/>
<path d="m1024 266 1 1-1-1z" fill="#810101"/>
<path d="m1059 266 1 1-1-1z" fill="#cd5252"/>
<path d="m1088 266 1 1-1-1m-817 1 1 1-1-1z" fill="#810101"/>
<path d="m483 267 1 1-1-1z" fill="#cd5252"/>
<path d="m512 267 1 1-1-1m289 0 1 1-1-1z" fill="#810101"/>
<path d="m1023 267 1 1-1-1z" fill="#cd5252"/>
<path d="m690 268 1 1-1-1z" fill="#ab5555"/>
<path d="m1117 268 1 1-1-1m-184 1 1 1-1-1z" fill="#cd5252"/>
<path d="m80 270 1 1-1-1z" fill="#810101"/>
<path d="m145 270 1 1-1-1z" fill="#ab5555"/>
<path d="m281 271 1 1-1-1m833 1 1 1-1-1m-976 1 1 1-1-1m290 0 1 1-1-1m276 0 1 1-1-1m-568 1 1 1-1-1m768 0 1 1-1-1z" fill="#cd5252"/>
<path d="m134 275 1 1-1-1z" fill="#ab5555"/>
<path d="m606 275 1 1-1-1m409 0 1 1-1-1m-883 1 1 1-1-1m352 0 1 1-1-1m121 0 1 1-1-1z" fill="#cd5252"/>
<path d="m682 276 1 1-1-1z" fill="#ab5555"/>
<path d="m792 276 1 1-1-1z" fill="#810101"/>
<path d="m130 277 1 1-1-1m474 0 1 1-1-1z" fill="#cd5252"/>
<path d="m615 277 1 1-1-1z" fill="#ab5555"/>
<path d="m128 278 1 1-1-1z" fill="#cd5252"/>
<path d="m603 278 1 1-1-1z" fill="#810101"/>
<path d="m297 279 1 1-1-1m766 0 1 1-1-1m-764 1 1 1-1-1m485 1 1 1-1-1m-663 1 1 1-1-1z" fill="#cd5252"/>
<path d="m420 282 1 1-1-1z" fill="#810101"/>
<path d="m782 282 1 1-1-1m63 0 1 1-1-1z" fill="#cd5252"/>
<path d="m949 282 1 1-1-1z" fill="#ab5555"/>
<path d="m1005 282 1 1-1-1m-701 1 1 1-1-1m699 0 1 1-1-1m-586 1 1 1-1-1m251 0 1 1-1-1m72 0 1 1-1-1m37 0 1 1-1-1m224 0 1 1-1-1z" fill="#cd5252"/>
<path d="m1101 284 1 1-1-1z" fill="#810101"/>
<path d="m116 285 1 1-1-1m450 0 1 1-1-1m99 0 1 1-1-1z" fill="#cd5252"/>
<path d="m743 285 1 1-1-1z" fill="#ab5555"/>
<path d="m774 285 1 1-1-1m295 0 1 1-1-1m30 0 1 1-1-1z" fill="#cd5252"/>
<path d="m414 286 1 1-1-1m73 0 1 1-1-1z" fill="#810101"/>
<path d="m634 286 1 1-1-1m362 0 1 1-1-1z" fill="#ab5555"/>
<path d="m412 287 1 1-1-1m89 0 1 1-1-1z" fill="#cd5252"/>
<path d="m572 287 1 1-1-1z" fill="#ab5555"/>
<path d="m586 287 1 1-1-1m53 0 1 1-1-1z" fill="#cd5252"/>
<path d="m764 287 1 1-1-1m80 0 1 1-1-1z" fill="#810101"/>
<path d="m863 287 1 1-1-1z" fill="#ab5555"/>
<path d="m410 288 1 1-1-1m434 0 1 1-1-1m126 0 1 1-1-1z" fill="#cd5252"/>
<path d="m1076 288 1 1-1-1z" fill="#810101"/>
<path d="m71 289 1 1-1-1m244 1 1 1-1-1m85 2 1 1-1-1m-3 1 1 1-1-1m-296 2 1 1-1-1m221 0 1 1-1-1m68 0 1 1-1-1z" fill="#cd5252"/>
<path d="m386 296 1 1-1-1z" fill="#ab5555"/>
<path d="m97 298 1 1-1-1z" fill="#810101"/>
<path d="m384 299 1 1-1-1z" fill="#cd5252"/>
<path d="m93 301 1 1-1-1z" fill="#ab5555"/>
<path d="m735 301 1 1-1-1m-404 1 1 1-1-1m55 0 1 1-1-1m-49 5 1 1-1-1m54 1 1 1-1-1m454 0 1 1-1-1m-762 1 1 1-1-1z" fill="#cd5252"/>
<path d="m392 309 1 1-1-1z" fill="#810101"/>
<path d="m79 312 1 1-1-1z" fill="#cd5252"/>
<path d="m814 314 1 1-1-1z" fill="#810101"/>
<path d="m349 318 1 1-1-1m1 1 1 1-1-1m1 1 1 1-1-1z" fill="#cd5252"/>
<path d="m736 321 1 1-1-1z" fill="#810101"/>
<path d="m405 324 1 1-1-1z" fill="#ab5555"/>
<path d="m705 331 1 1-1-1m-294 1 1 1-1-1m-48 1 1 1-1-1m50 2 1 1-1-1z" fill="#cd5252"/>
<path d="m415 338 1 1-1-1z" fill="#810101"/>
<path d="m815 339 1 1-1-1z" fill="#ab5555"/>
<path d="m375 348 1 1-1-1z" fill="#cd5252"/>
<path d="m706 349 1 1-1-1z" fill="#810101"/>
<path d="m378 352 1 1-1-1z" fill="#cd5252"/>
<path d="m422 353 1 1-1-1m395 11 1 1-1-1z" fill="#810101"/>
<path d="m424 366 1 1-1-1z" fill="#ab5555"/>
<path d="m736 367 1 1-1-1m-339 6 1 1-1-1m315 2 1 1-1-1z" fill="#cd5252"/>
<path d="m844 375 1 1-1-1z" fill="#ab5555"/>
<path d="m722 379 1 1-1-1z" fill="#cd5252"/>
</svg>
