<svg xmlns="http://www.w3.org/2000/svg" viewBox="-150 0 545 216" fill="#999" xmlns:v="https://vecta.io/nano"><path d="M102.5 1.5C60.35 9.45 33.3 53.95 46 94.5c16.7 53.4 84.35 70.4 123.4 31.05 51.4-51.8 5.1-137.6-66.9-124.05zm13.5 7V15h-5.05c-9 0-31.15 9.65-34.45 15-.5.85-8.5-7-8.5-8.3 0-1 12.15-9.3 17.55-12 7.4-3.7 20.25-7.15 28.2-7.6 2.1-.1 2.25.3 2.25 6.4zm18.5-3.9c8.1 1.95 20.8 8.15 27.35 13.35l5.35 4.25-3.3 3.4c-1.8 1.85-3.8 3.4-4.4 3.4-1.45 0-5.95-6.05-5.95-8-.05-.8-.85-1.6-1.8-1.8s-1.75.15-1.75.75c0 1.7-5.35 1.25-10.1-.9-2.45-1.05-6.65-2.45-9.4-3.1-7.55-1.85-8.6-4.9-1.7-4.95 1.3 0 3-.65 3.75-1.45 1.9-1.85 1.85-3.15 0-1.6-.8.7-2.05 1.05-2.75.8-.7-.2-3.25.2-5.7.9-6.15 1.85-6.1 1.9-6.1-3.25V1.8l5.25.65A137.53 137.53 0 0 1 134.5 4.6zM116 22.85v5.9l-5.1.65c-7.05.95-15.2 4.15-20.25 8.05l-4.3 3.25-8.7-8.1 3.7-3.15c7.1-6.15 22.3-12.15 31.4-12.35L116 17v5.85zm19.7-2.8c4.45 1.5 6.05 2.5 5.65 3.5-.3.8-.1 1.45.5 1.45.95 0 3.05 3.85 4.5 8.15.35 1.15 1.2 1.5 2.6 1.15 2.5-.65 3.8 2.05 2.05 4.2-1.3 1.55-3.1 2.05-2.85.75.3-1.45-1.35-4.25-2.5-4.25-.65 0-1.75-.9-2.4-2-1.05-1.65-1.65-1.8-3.65-.85-1.85.85-3.5.7-7.25-.55-2.65-.85-7-1.85-9.6-2.25-5-.65-6.65-4.05-3.55-7.15.95-.95.95-1.2 0-1.2-.65 0-1.2-.95-1.2-2.15 0-2.7 7.8-2.15 17.7 1.2zm-65.75 17.3c-6.8 8.5-11.55 20.55-12.2 30.9L57.5 72h-6.3-6.25l.6-5.25c1.6-13.35 7.15-27.05 15.05-37.1l4.6-5.85 4.35 4.25 4.35 4.3-3.95 5zm109.5 1.05c4.25 7.2 8.05 18.65 9.05 27.35l.7 6.25h-6.05-6.05l-.6-4.75c-.35-2.6-1.5-7.45-2.55-10.75-1.1-3.3-2.15-7-2.35-8.2-.35-2.55-3.8-7.3-8.65-12.05L159.6 33l4.45-4.6 4.45-4.55 3.65 4.25c2 2.3 5.3 6.95 7.3 10.3zM116 37.05c0 3.95-.4 6.15-1.25 6.35-.7.2-3.5.85-6.25 1.5-2.7.7-6.5 2.35-8.3 3.8l-3.4 2.55-4.4-4.35-4.45-4.35 2.3-1.75c6.15-4.7 16.85-8.85 25-9.7.4-.05.75 2.6.75 5.95zm13-3.85c4.55 1.4 11.9 5.1 14.9 7.55l2.4 1.95L142 47c-3.55 3.55-4.6 4.1-5.9 3.15-3.95-2.8-9.65-5.35-13.45-6l-4.15-.7-.3-6.3-.3-6.25 3.8.65c2.1.35 5.4 1.1 7.3 1.65zM80.7 47.35c-4 5.15-7.15 12.95-8.2 19.95l-.75 4.7H65.9c-5.8 0-5.9-.05-5.9-2.8 0-7.8 5.3-21.45 11.6-29.9l3.9-5.25 4.35 4.35 4.35 4.3-3.5 4.65zm77.35-3.25c3.3 2.25 6.45 5 7.05 6.05.7 1.3 1.65 1.75 2.9 1.35 2.15-.7 4.55 5.7 5.65 15.25l.65 5.25h-6.15c-6.35 0-7.35-1.05-6.15-6.5 1.15-5.25-.55-14.95-1.95-11.1-.6 1.6-.95 1.35-2.4-1.75-.95-2-2.15-3.65-2.7-3.65-.5 0-.95-.55-.95-1.2s-.95-2.2-2.1-3.4c-1.75-1.9-1.95-4.4-.35-4.4.25 0 3.2 1.85 6.5 4.1zM90.2 48.7c2.1 2.05 3.8 4.1 3.8 4.6 0 1.55-7.4 10.4-9.5 11.3-1.1.5-2.45 2.35-2.95 4.15-1.6 5.35-7.7 4.9-6.85-.5C75.85 60.75 83.4 45 85.8 45c.35 0 2.3 1.65 4.4 3.7zm61-.35c1.7 2.15 2.5 4.15 2.15 5.4-.35 1.4.05 2.15 1.45 2.5 2.45.65 3.75 5.8 2.25 8.7-1.55 2.8-3.2 2.6-2.5-.35.8-3.15-1.15-4.25-3.6-2.05-1.1.95-1.95 1.45-1.95 1.1 0-1.75-.25-2.3-2.15-4.35-1.15-1.2-2.6-2-3.2-1.75-4.3 1.5-4.6-4.5-.4-8.5 5.15-4.85 4.65-4.8 7.95-.7zM116 52c0 5.55-.15 6-2.25 5.95-2.2 0-2.2-.05-.3-1.5 1.05-.8 1.4-1.45.7-1.45s-2 1.35-2.95 3c-2.55 4.5-3.95 4.4-8.75-.45l-4.35-4.5L101 51c9.6-6.85 15-6.5 15 1zm11.35-3.95c6.95 2.6 8.45 4.2 5.35 5.85-1.25.65-2.9 2.2-3.65 3.4-1.2 2.05-1.15 2.05 1.3-.2 1.45-1.35 2.9-2.2 3.15-1.9 1.35 1.3-6.5 5.85-9.05 5.2-2.7-.7-1.4-3.1 2.6-4.65 1.2-.5 1.2-.6-.1-.65-.85-.05-2.45.55-3.5 1.35C119.3 59.6 118 58.5 118 52c0-7.05.55-7.25 9.35-3.95zM101.9 59.4c2.85 3.05.7 3.7-3.8 1.2-1.3-.75-3.35-1.1-4.5-.8-2 .5-2 .4.3-2.1 2.65-2.9 3.95-2.65 8 1.7zm38.1.1c-.55.65-.7 1.5-.3 1.85.35.35.15.65-.45.65-1.6 0-2.25-2.6-.9-3.95.9-.9.45-1.05-1.85-.55-2.85.6-2.9.55-1.05-.9 2.35-1.95 6.4.65 4.55 2.9zm-17.6 7.85c1.6 2.1 1.7 2.8.65 4.1-.9 1.1-.95 1.55-.15 1.55 1.5 0 3.2 4.55 2.45 6.5-.3.8-1.4 1.5-2.45 1.5s-2.5 1.3-3.4 3c-1.65 3.2-4.85 3.95-8.55 1.95-2.65-1.4-2.45-2.95.4-2.95 1.55 0 2.75-.85 3.5-2.55 1.6-3.55 1.45-4.45-1-6.6-2.35-2-2.95-2.25-2.65-1.1.65 2.45-3.8 9.6-5.4 8.65-1.25-.8-.95-2.4.5-2.4.7 0 1.75-1.3 2.35-2.9.9-2.4.85-2.85-.25-2.4-.85.3-1.4-.15-1.4-1.1 0-1.05.9-1.6 2.55-1.6 1.4 0 2.3-.4 2-.9s-1.55-.65-2.8-.35l-2.25.5 2.05-1.85c1.15-1.05 2.95-2.4 4-3.05s1.85-1.65 1.7-2.2c-.4-1.85 6.15 1.55 8.15 4.2zm21 .7c1.35 1.3 1.05 9.7-.4 11.45-.7.85-1.5 1.3-1.8 1.05-.25-.3-1 .15-1.6 1-1.8 2.45-6.75-.25-6.5-3.55.1-1.4-.15-4.15-.55-6.2-1.05-5.2-.15-6.1 5.3-5.3 2.55.35 5.05 1.05 5.55 1.55zm15.95 1.1c.6 2.55.45 2.65-3.85 3-2.5.2-4.5.2-4.5.05 0-1.05 6.9-6.3 7.6-5.8.05.05.4 1.3.75 2.75zM87.5 72c-.6 1-4.5.1-4.5-1.05 0-1.3 2.4-1.75 3.75-.7.65.55 1 1.35.75 1.75zm17.05 1.7c-.25.7 0 1.15.6 1.05.6-.15 1.25.2 1.45.75.25.55-1.3 1-3.45 1-3.65.05-3.85-.1-2.9-2.15 1.05-2.3 5.2-2.9 4.3-.65zM57.4 77.25c1.4 8.95 1.75 11 2.35 12.5.45 1.25.2 1.45-1.25.9-1.1-.45-2.15-.2-2.65.55-.7 1.05-1.05 1-1.75-.1-.8-1.2-1.15-1.2-2.4.05-1.8 1.8-1.45 7.55.65 9.6 1.4 1.45 1.5 1.35.95-.65l-.55-2.2 3.85 2.15c2.15 1.2 4.85 3 5.95 4.05 1.15 1.05 2.4 1.9 2.85 1.9.4 0 2.55 1.85 4.75 4.15l4 4.15-4.35 4.4-4.3 4.45-3.35-3.85C52.45 108.25 45 88.95 45 74.95c0-.55 2.7-.95 5.95-.95 5.95 0 5.95 0 6.45 3.25zm14.85-.65c.35 1.8-.2 3.25-1.85 4.95-1.35 1.3-2.45 3.15-2.55 4.15s-.2 2.4-.25 3.2c-.15 1.9-4.55 3.45-5.1 1.85-1.1-3.05-2.45-10.55-2.5-13.5V74h5.9c5.5 0 5.9.15 6.35 2.6zm6.25-.85c-.45.95-.85 2.55-.95 3.5-.3 2.95-1.45 3.15-2.5.3-1.65-4.3-1.3-5.55 1.55-5.55 2.1 0 2.45.35 1.9 1.75zm9.05-.65c.35.6.15 1.6-.5 2.25-.85.85-1.35.75-2.1-.35-.75-1.2-.9-1.1-.95.65 0 1.2-.4 2.35-.9 2.5-.5.2-.3 1.7.5 3.35 1.05 2.2 1.3 2.4 1 .75-.2-1.25-.25-2.25-.1-2.25.2 0 1-.25 1.8-.55 1-.4 1.65.35 2.15 2.25.35 1.55 1.8 4.55 3.2 6.65l2.55 3.9-3.75 3.8c-3.6 3.7-7.45 5.7-7.45 3.85 0-.5.45-.9 1-.9 1.35 0 1.3-3.7-.1-4.55-.6-.4-.9-1.7-.65-3 .25-1.25-.6-4.45-1.9-7.1-2.95-6.1-2.95-7.1.2-10 2.75-2.55 4.95-3 6-1.25zm71.9 3.65C157.9 89.05 148 107.05 148 99.5c0-2-1.65-1.9-2.85.15-1.15 2.1-5.9 2.05-10.45-.1-2.55-1.25-4-1.4-6.05-.6-1.45.55-4.65.75-7.05.4-2.75-.35-4.6-.15-5.05.55-1.15 1.85-6.35 1.25-11.35-1.35-8.35-4.35-8.2-3.95-3.3-8.95l4.4-4.5 2.5 1.95c1.35 1.05 3.2 1.95 4.1 1.95s2.45.9 3.35 2c.95 1.1 1.3 2 .8 2-.55 0-1.4-.8-1.95-1.75-1.35-2.25-1.4-.7-.1 1.7.7 1.4.6 2-.5 2.4-1.65.65-2 3.2-.6 4.1.5.3 2.25-.55 3.8-1.85 2.05-1.7 3.35-2.2 4.35-1.55.8.5 1.9.9 2.45.9s.35-.4-.5-.95c-.9-.6-1-1-.3-1 .65 0 1.45.45 1.8 1 1.1 1.8 2.05 1.05 2.3-1.7.3-3.6 1.6-4.75 3.85-3.4 1.75 1 1.75 1.1-.35 1.7-2.4.65-4 3.4-1.95 3.4.7 0 1.8-.55 2.45-1.2.95-.95 1.2-.7 1.2 1 0 1.2.35 2.1.75 2 .4-.05 2.65.4 5 1.05 5.15 1.5 5.75 1.2 7.3-3.45 1.45-4.35-.25-7.2-2.5-4.15-.7.95-2.1 1.75-3.15 1.75-1.5 0-1.35-.4.95-1.9 1.6-1.05 3.65-3.1 4.65-4.55.95-1.5 1.9-2.6 2.1-2.45 1.1.7 8.9-1.3 8.4-2.1-.35-.55-.15-1 .45-1 .55 0 1.05-.5 1.05-1.05 0-.6-.85-.8-1.9-.5-1.4.45-2.5-.2-4.05-2.4l-2.2-3.05H155h5.1l-.65 4.75zm14.55-1.8c0 8.5-6.65 25.7-12.5 32.3-2.95 3.35-3.5 3.4-3.5.35 0-3.2-2.5-5.3-3.75-3.1-.75 1.4-1.05 1.35-2.7-.4-1.75-1.95-1.7-2.1.9-5.2 5.05-6 9.5-17.3 9.55-24.15 0-2.7.1-2.75 6-2.75 6 0 6 0 6 2.95zm15-.55c0 12.95-8.45 33.9-17.65 43.7l-2.4 2.55-4.25-4.05-4.25-4.1 3.85-4.95c6.85-8.75 10.7-18.4 12.25-30.8l.55-4.75h5.95c5.6 0 5.95.15 5.95 2.4zM93 80c.45 0 2.45 1.55 4.4 3.5 2 1.9 3.6 2.85 3.6 2.1 0-1.7 2.45-3.8 3.35-2.9.65.65-7.15 9.3-8.35 9.3-.75 0-4.5-6.5-5.95-10.4-.95-2.45-.85-2.75.5-2.2.9.3 2 .6 2.45.6zm43.55 7.4c1.05.8 1.65 1.75 1.3 2.1-.85.85-4.85-1.25-4.85-2.55 0-1.35 1.3-1.2 3.55.45zM74.9 97.65c-.65.75-.65 1.4.05 1.8 1.7 1.05 1.2 2.55-.85 2.55-1 0-2.4-.7-3.1-1.5-.95-1.1-.95-1.5-.05-1.5.65 0 .9-.45.55-1-.35-.6-1.05-.75-1.55-.45-.55.3-.95.35-.95.05s1.25-1.2 2.75-2c2.95-1.55 5-.25 3.15 2.05zM100.65 99c2.6 1.65 5.6 3 6.65 3 1 0 1.7.35 1.5.75l-1.75 3.5c-1.75 3.55 1.55 7.75 6.1 7.75 1.6 0 2.85.45 2.85 1 0 3.05-15.6-1.6-23.35-6.9-5.6-3.85-5.55-3.6-.95-8.3 4.4-4.55 3.25-4.4 8.95-.8zm34.3 8.4c1.1.85 1.25.8.7-.15-.5-.85-.1-1.25 1.3-1.25 1.1 0 2.05.5 2.05 1.05 0 .6.55.75 1.25.3.95-.55.9-.35-.05.85-.85 1.1-.95 1.85-.25 2.25 1.65 1.05 1.25 6.25-.5 6.95-.85.3-1.3 1.05-.95 1.6 1.8 2.9-2.2.35-7.05-4.5-3-3.05-5.05-5.5-4.45-5.5.55 0 1-.65 1-1.4 0-2.6 3.65-2.7 6.95-.2zm16.45 1.05c.85 1.35 2.5 3.3 3.6 4.35 2 1.85 2 1.85-1.95 5.05-2.15 1.7-4.1 3.15-4.25 3.15-.8 0-.05-4.65 1.05-6.75 1-1.9.9-2.4-.85-3.45-2.25-1.45-2.7-4.8-.6-4.8.75 0 2.1 1.1 3 2.45zm-41.35 9.15l5.95.65v5.9V130h-3.75c-8.2-.05-19.75-4.4-29.3-11.1-6.9-4.85-6.9-5.15.8-5.55 3.35-.15 6.1-.85 6.6-1.6.7-1.05 2.25-.6 7.3 1.9 3.9 2 8.75 3.5 12.4 3.95zM88 125.3c5.9 3.35 15.1 6.3 22.25 7.15l5.75.7v5.9c0 6.95.5 6.75-12.15 4.4-9.95-1.9-24-8.25-31.7-14.4l-5.35-4.25 8.5-8.7 4.1 3.3c2.25 1.85 6.15 4.45 8.6 5.9zm76.75 1.5c-6.6 7-23.85 15.05-36.75 17.15-10.45 1.65-10 1.9-10-4.8v-5.9l7.75-1.35c4.25-.7 8.7-1.2 9.9-1.1 2.1.25 18.7-10.1 21.35-13.3 1.2-1.4 1.8-1.15 5.65 2.65l4.35 4.25-2.25 2.4zm-37.3-7.15c.3.85.25 2-.1 2.6s.6 2.1 2.2 3.35c3.65 2.95 3.2 3.3-4.9 4.05l-6.65.65v-6.1-6.05l3.25-.35c4.1-.45 5.45 0 6.2 1.85zM147.65 53c-1.25 2.5-1.25 3-.1 3 1.4 0 3.45-2.95 3.45-4.95 0-2.1-1.9-1-3.35 1.95zM53.6 10.8c-6.45 4.4-15.15 16-13.35 17.8 1 1 10.85-7.8 16.2-14.5 7.9-9.95 7.5-10.45-2.85-3.3zm123.45 2.7c5.3 6.5 11.75 12.65 15.7 14.9 1.6.95.1-3.2-3.3-9.05C187.15 15.4 174.95 6 172.1 6c-.6 0 1.6 3.35 4.95 7.5z"/><path d="M39.05 14.75c-6.05 7.35-7.5 11.7-7.9 23.75l-.35 11 3.9-4c2.15-2.2 6.15-5.9 9-8.2 4.75-3.95 13.9-16.05 12.9-17.05-.25-.25-1.75.7-3.3 2.15s-4.8 4-7.3 5.75c-2.45 1.7-5.95 4.9-7.75 7.1-3.55 4.35-4 3.8-1.8-2 .75-2.05 1.9-6.15 2.5-9.05.55-2.9 1.95-7.05 3.05-9.25 2.55-5 1.1-5.1-2.95-.2zm152.95.2c1.1 2.2 2.5 6.35 3.1 9.25s1.7 7.25 2.5 9.6c1.95 6 1.85 6-2.55 1-2.15-2.45-7.15-6.8-11.1-9.7l-7.15-5.2 2.35 4.2c2.35 4.25 10.35 13 16.9 18.5 1.95 1.65 4.3 4.1 5.25 5.4 1.65 2.35 1.7 2.1 1.7-8.05 0-11.45-2.3-18.45-8.45-25.7-3.75-4.45-5-4.1-2.55.7zM26.95 28.1c-6.1 8.5-7.35 22.3-3.6 37.9l2.3 9.5 1.2-3.5c.65-1.95 3.2-6.2 5.75-9.5 4.15-5.45 8.9-13.6 12.1-20.8 1-2.25-.1-1.6-5.7 3.4-6.15 5.55-8.2 8.4-11.95 16.9l-1.1 2.5.65-2.5c.35-1.4.8-9.05.95-17 .15-8 .75-15.75 1.35-17.25 1.35-3.6.75-3.5-1.95.35zm178.15-.6c.6 1.65 1.05 8.55 1 15.35-.1 6.8.35 14.15.95 16.35 1.55 5.75.45 5.8-1.5.1-1.8-5.3-2.45-6.15-11.45-14.8-4.95-4.75-6-5.45-5.2-3.35 1.75 4.65 7.3 14.15 12.3 21 2.65 3.65 5.35 8.1 5.95 9.9 1.15 3.25 1.2 3.15 3.45-6.15 3.95-16 2.35-30.65-4.2-38.5l-2.4-2.9 1.1 3zm-191.5 27c-1.55 10.9 1.6 21.7 10.15 34.7l5.05 7.75.7-3.75c.35-2.05 2.25-7.5 4.15-12.15 2.45-5.85 3.65-10.6 4-15.5l.5-7.05-2.7 4.5c-4.55 7.55-7.25 14.25-7.95 19.8-.85 6.55-1 6.45-2.9-2.65-.85-4-2.75-9.85-4.2-13-1.45-3.1-3.45-8.35-4.4-11.65l-1.7-6-.7 5zm205-.85c-.4 2.25-2.1 7-3.75 10.5-1.7 3.5-4.1 10.4-5.4 15.35-1.25 4.95-2.35 8.1-2.35 6.95-.2-4.85-3.5-14.4-7.2-20.9l-4-7.05.4 7c.25 4.65 1.35 9.2 3.15 13.5 1.55 3.55 3.45 9.05 4.3 12.2l1.5 5.7 5.05-7.7c8.45-13 11.9-25.05 9.9-35.2l-.85-4.5-.75 4.15zM36.15 83.2c-2.15 9.2-2.45 18.85-.9 25.55 1.8 7.7 1.55 7.75-2.15.5-1.6-3.15-5.25-8.45-8.05-11.75-2.85-3.3-6.5-8.7-8.2-12l-3.05-6 .65 5.4c1.5 12.05 6.1 19.9 18.2 30.8l7.85 7.05v-18.1C40.5 89 39.3 78 37.65 78c-.2 0-.85 2.35-1.5 5.2zm158.8-1.7c-1.05 2.95-1.45 8.9-1.45 22.65v18.6l7.85-7.05c12.1-10.9 16.7-18.75 18.2-30.8l.65-5.4-3.05 6c-1.7 3.3-5.35 8.7-8.2 12-2.8 3.3-6.45 8.6-8.05 11.75-3.7 7.25-3.95 7.2-2.15-.5 1.6-6.8 1.2-16.15-1.05-25.75l-1.3-5.5-1.45 4zm-151.9 23c-.1 10.45 2.7 23.2 6.35 28.9l3.7 5.8-8.3-7.15-13.65-11.8c-2.95-2.5-6.7-6.4-8.35-8.65l-3-4.1.65 3.5c3.05 15.35 12.8 25.55 28.6 29.9 9.15 2.55 9.35 2.55 8.5.35-.4-.95-1.3-5.35-2-9.8-1.55-9.3-12.4-32.85-12.5-26.95zm141.7 9.25c-4.05 8.35-5.85 13.5-6.35 17.75-.35 3.3-1.05 7.05-1.55 8.4-1.3 3.45-.85 3.5 7.8 1.1 16.1-4.45 25.9-14.65 28.85-30l.65-3.5-1.7 2.5c-2.9 4.15-7.65 9-12.95 13.2-4.6 3.65-8.1 6.7-15.85 13.7-2.75 2.5-2.75 2.35.75-3.15 3.85-6.05 5-10.5 6.1-24 .85-9.9.9-9.9-5.75 4zM56 122.6c0 8.95 8.75 23.65 16.5 27.75 3.45 1.8 2 2.2-2.2.55-1.55-.6-7.9-2.4-14.2-4-6.25-1.6-13.85-4.25-16.9-5.9-7.1-3.85-7.2-3.55-1.1 3.3 9.65 10.85 21.95 14.3 38.2 10.8l5.8-1.25-2.35-2.2c-1.25-1.2-3.8-4.75-5.6-7.9s-5.65-8.35-8.45-11.5L58.25 124C57 122.65 56 122 56 122.6zm119 2.15l-7.05 7.95c-2.55 2.85-6.15 7.75-7.9 10.85-1.75 3.15-4.3 6.7-5.7 8l-2.45 2.3 5.8 1.25c16.15 3.6 28.5.1 38.25-10.8 6.05-6.85 5.95-7.15-1.1-3.35-3 1.65-11.5 4.6-18.9 6.6-17.7 4.8-18 4.85-14.45 2.9 7.55-4.25 11.45-9.95 14.95-21.95 1.95-6.75 1.7-7.45-1.45-3.75zM81 158c-13.75 3.6-19.9 4.2-26 2.6-6.5-1.7-7.05-1.5-3.3 1.15 9.75 6.95 27.65 7.7 44.9 1.95 14.6-4.9 19.6-5 10.35-.25S89 176.1 91.85 177.15c1.7.6 3.1-.3 7.75-5.15 12.95-13.6 21.85-13.65 35.1-.25 4.35 4.45 6.3 5.8 7.65 5.3 2.7-.95-7.5-10.05-15.65-14-9.1-4.4-3.45-4.05 10.7.65 17.75 5.9 37.5 4.9 45.3-2.3 2.2-2 2.35-2.4.8-1.85-8.65 3.05-12.3 2.9-29-1.15-11.55-2.75-19.1-3-30.15-.9-5.9 1.1-8.8 1.25-11.35.45-7.1-2.1-23.9-2.1-32 .05zM.15 202.95c.4 10.85 1.5 12.4 8.45 12.4S17 213.1 17 202.4c0-8.25-.05-8.4-2.45-8.4s-2.5.25-2.75 8.25c-.3 7.85-.4 8.25-2.7 8.6-3.3.45-4.05-1.3-4.1-9.6 0-7.15-.05-7.25-2.6-7.25H-.2l.35 8.95zm20.35 1.55V215h2.9 2.9l-.55-6c-.7-7.4-.3-7.4 5 .05C34 213.6 35.6 215 37.5 215H40v-10.5V194h-2.5c-2.4 0-2.5.2-2.5 6.7v6.75l-4.7-6.75c-3.7-5.3-5.2-6.7-7.25-6.7H20.5v10.5zm23.5 0V215h2.5H49v-10.5V194h-2.5H44v10.5zm7-8c0 1.85.55 2.5 2 2.5 1.85 0 2 .65 2 8 0 7.85.05 8 2.5 8s2.5-.15 2.5-8c0-7.35.15-8 2-8 1.45 0 2-.65 2-2.5 0-2.4-.25-2.5-6.5-2.5s-6.5.1-6.5 2.5zm15 8V215h5.5c4.85 0 5.5-.25 5.5-2 0-1.55-.65-2-3-2s-3-.45-3-2 .65-2 3-2c2.55 0 3-.4 3-2.6 0-2.35-.25-2.5-3-1.9-2.6.55-3 .35-3-1.4 0-1.65.65-2.1 3-2.1 2.55 0 3-.4 3-2.5 0-2.35-.3-2.5-5.5-2.5H66v10.5zm15-.1V215h5.05c15.75 0 16.2-19.5.45-20.8l-5.5-.45v10.65zm10.5-3c1.9 2.85 1.1 7.2-1.55 8.65-3.4 1.8-3.95 1.1-3.95-5.05 0-6.75 2.4-8.35 5.5-3.6zm17.5 3.1V215h2.75c2.75 0 2.75-.05 2.4-6-.4-7.45.35-7.45 5.35.05 3.25 4.85 4.5 5.95 6.75 5.95H129v-10.5V194h-2.5c-2.4 0-2.5.2-2.5 6.75v6.75l-4.75-6.7c-3.85-5.45-5.25-6.7-7.5-6.75L109 194v10.5zm26-1.25l-3.65 10.5c-.35.8.4 1.25 2.1 1.25 1.45 0 2.85-.7 3.2-1.5.75-2.05 7.95-2.05 8.7 0 .35.8 1.75 1.5 3.25 1.5 1.65 0 2.45-.45 2.15-1.25l-3.75-10.5c-3.05-8.65-3.45-9.25-6.05-9.25s-3 .55-5.95 9.25zm7.9 3.5c.05.7-.8 1.25-1.9 1.25-2.3 0-2.45-.8-.85-4.7l1.15-2.8.75 2.5c.4 1.35.8 3.05.85 3.75zm7.1-10.25c0 1.85.55 2.5 2 2.5 1.85 0 2 .65 2 8 0 7.85.05 8 2.5 8s2.5-.15 2.5-8c0-7.15.2-8 1.9-8 1.8 0 3.5-3.25 2.3-4.45-2.05-2.1-13.2-.45-13.2 1.95zm15 8V215h2.75 2.75v-10.5V194h-2.75H165v10.5zm11.7-8.1c-6.55 6.05-3.65 17.6 4.8 19.15 11 2.1 17.9-11.85 9.4-19-4.15-3.45-10.55-3.55-14.2-.15zm10.35 3.65c2.65 1.4 2.6 7.05-.1 9.5-4.65 4.2-11.15-2.55-7.6-7.95 1.8-2.75 4.5-3.3 7.7-1.55zm9.95 4.45c0 10.5 0 10.5 2.45 10.5 2.3 0 2.45-.35 2.75-6.25l.3-6.2 4.5 6.2c3.6 4.95 5.05 6.2 7.25 6.2l2.75.05v-10.5c0-10.5 0-10.5-2.45-10.5-2.35 0-2.45.35-2.75 6.7l-.3 6.75-4.5-6.7c-3.7-5.5-5-6.7-7.25-6.7L197 194v10.5zm25.25-9.25c-3.65 4.55-2.45 9.05 2.85 11.2 2.3.9 3.9 2.15 3.65 2.8-.55 1.7-4.55 2.15-6.2.75-1.1-.85-1.55-.65-2.05.95-.85 2.75-.1 3.7 3.5 4.4 9.85 1.95 13.65-9.1 4.4-12.95-4.1-1.7-3.2-4.9 1.1-3.8 2.6.65 4.45-2.4 2.3-3.75-2-1.25-8.45-1-9.55.4z"/></svg>