<svg xmlns="http://www.w3.org/2000/svg" viewBox="0 0 900 207" preserveAspectRatio="xMidYMid" fill="#999" xmlns:v="https://vecta.io/nano"><path d="M543.8 40.1c-4.4 3.6-6.2 8.9-5.2 15.4.5 3.5 1.5 5.3 4.5 8 3.4 3.1 4.6 3.5 9.2 3.5 7.9 0 13.1-4.3 14.2-11.6 1.6-10.2-4.7-18.4-14-18.4-4.1.1-5.7.6-8.7 3.1zm256.7-1.6c-1.6.7-5.7 2.1-9 3l-9.8 3.1c-2 .8-4.8 1.4-6.1 1.4-3.7 0-3.8 1.1-.2 4.4 6.4 5.8 6.6 7.5 6.6 47.6 0 30.3-.2 36.6-1.6 39.9-.9 2.3-2.4 4.1-3.6 4.4-1.1.3-1.7 1-1.3 1.6.8 1.4 35.1 1.5 36 .2.3-.6-.5-1.5-1.7-2.2-1.3-.6-2.5-1.4-2.8-1.6-.3-.3-.7-23.5-1-51.5-.3-32.8-.9-51.2-1.5-51.4-.5-.1-2.3.3-4 1.1zm-472 .4c-1.1.5-4.7 1.6-8 2.6l-10.4 3.1c-2.5.8-5.5 1.4-6.8 1.4-1.4 0-2.3.6-2.3 1.5 0 .8.4 1.5.8 1.5 2.1 0 5.8 4.5 6.9 8.3 1.7 5.6 1.8 75.9.2 80.6-.6 1.7-2 3.6-3 4.2-1.1.5-1.7 1.4-1.4 2 .8 1.2 34.2 1.2 34.9 0 .3-.5-.5-1.6-1.9-2.5L335 140l-.2-50.8c-.3-49.9-.3-50.7-2.3-50.9-1.1-.1-2.9.2-4 .6zm86.5 0c-.8.5-4.2 1.6-7.5 2.5L397 44.6c-2.5.8-5.7 1.4-7.2 1.4-3.9 0-4.2 1.5-.8 4 6.1 4.4 6.1 4.1 6.1 48.3v40.2l-3 2.7c-1.6 1.4-2.7 2.9-2.4 3.2.4.3 8.4.6 18 .6 16.3 0 19.6-.6 16-2.7-3-1.8-3.7-7.6-3.7-30 0-18.9.2-22.8 1.6-24.8.9-1.4 2.5-2.5 3.5-2.5s2.1-.5 2.4-1c1-1.6 4.8-1.1 7.5 1l2.5 1.9v26.4c0 23.8-.2 26.7-1.7 28.4-1 1.1-1.8 2.3-1.8 2.6 0 .4 7.4.7 16.5.7s16.5-.2 16.5-.5-1-1.9-2.2-3.6c-2.2-3-2.3-4-2.8-31.4l-.5-28.3-3.1-3.8c-3.7-4.6-7-5.7-15.1-5-6.1.5-11.6 3-16.8 7.6-1.1 1-3 2.1-4.2 2.4l-2.3.7-.2-22.3c-.3-23.4-.5-24.3-4.8-21.9zm-400.5 9c-.3.6.2 1.6 1.2 2.3 7.9 6.2 13.1 13.2 17.8 24.3l6.1 14 3.2 7.5c.9 1.9 2.2 5.1 3 7 .9 1.9 2.2 5.1 3 7 .9 1.9 2.2 5.1 3 7 .9 1.9 2.2 5 2.9 6.7 1.5 3.7 3.6 8.5 6 14 2.7 6.3 5.2 10.8 5.9 10.8s4.6-7.4 13.4-26l7.1-14.5c.5-.8 1.1-2.1 1.4-2.8.3-.6.7-1.8 1-2.5.3-.6.9-1.9 1.4-2.7s1.9-3.7 3.1-6.3c1.2-2.7 2.5-4.5 2.9-4 .4.4 2.2 4.4 4 8.8l4.7 11.2 5.9 14.3 3.1 7.7 5.8 13.3c1.4 2.9 4.6 4 4.6 1.5 0-.9.6-2.9 1.4-4.3.7-1.5 2.1-4.3 2.9-6.2l8.1-18.4c1.4-3.2 2.6-6.4 2.6-7.1s.7-1.8 1.5-2.5 1.5-2.3 1.5-3.5.7-2.8 1.5-3.5 1.5-2.3 1.5-3.6.4-2.4.9-2.4 1.3-1 1.6-2.3c.4-1.2 1.8-4.7 3.2-7.7 9.3-20.6 13.5-27.1 21.7-33.8.9-.7 1.6-1.9 1.6-2.7 0-1.3-2.8-1.5-17-1.5-10.2 0-17 .4-17 1 0 .5 1.8 2.7 3.9 4.8 3.1 3 4.1 4.9 4.6 8.7 1.5 9.4-.9 24.3-5.1 32.8-.8 1.6-1.4 3.7-1.4 4.7 0 .9-.7 2.3-1.5 3s-1.5 2.3-1.5 3.6c0 3.5-3.7 3.2-5.2-.4l-2.3-5.7-2.9-7.3c-4.1-10.9-4.9-13-9-22.5-.9-2.1-1.9-6.5-2.3-9.7-.5-5-.3-6 1.6-7.9C121 51 122 49.5 122 49c0-.6-8.2-1-22.5-1-15.2 0-22.5.3-22.5 1.1 0 .6 1.2 2.1 2.8 3.4 3.1 2.7 6 8.2 10.7 20.5 1 2.5 2.5 6 3.4 7.7 1.4 3.1 1.4 3.6-.3 7-1 2.1-2.2 4.5-2.7 5.3a20.99 20.99 0 0 0-1.5 3 20.99 20.99 0 0 1-1.5 3 20.99 20.99 0 0 0-1.5 3c-3.2 7.7-4.7 10-5.9 9-.7-.6-1.8-2.5-2.5-4.3-.6-1.8-1.7-4.6-2.5-6.2l-4.5-11-4.5-11c-8.4-19.4-9.4-23.7-6.1-27.4 1-1.1 1.5-2.5 1.1-3-.8-1.4-46.1-1.5-47-.2zm354.9 2.9c-6.1 8.2-23.1 23.8-27.7 25.5-3 1.1-1.4 3.2 2.6 3.5 2.8.2 3.8.8 4.2 2.5.3 1.2.6 14.4.7 29.2.3 30.5.4 30.7 7.8 34.5 4.8 2.5 11.5 2.6 16.6.2 5.4-2.4 13.5-8.3 12.8-9.3-.3-.5-2.5-.9-4.8-.9-7.5 0-7.7-.8-7.4-30.2l.3-25.3 5.7-.5c4.1-.4 6.1-1.1 7.2-2.5 2.5-3.2 1.4-4-6.2-4.3l-7.2-.3V60.5c0-6.8-.4-12.6-.9-12.9s-2.1 1.1-3.7 3.2zM268.3 72.5c-5.6.6-10.8 1.6-11.5 2.3-.6.6-2.1 1.2-3.2 1.2-2.2 0-13 5.1-18 8.5-4.9 3.3-8.6 9.3-8.6 14 0 4.4 1 6.2 5 8.9 3.3 2.2 7.2 2 11.4-.5 5.1-3 7.6-8.5 7.6-16.7 0-6.3.2-6.9 3.6-10.6s3.8-3.9 7.1-3c5.7 1.4 7.4 4.6 8 15.6l.6 9.6-3.4 1.5c-3.2 1.5-10.2 4.1-14.3 5.4-1.1.4-6 2.7-11 5.2-11.9 6.1-14.9 9.8-14.9 18.1 0 5.5.3 6.4 3.1 9.3 3.7 3.8 10.9 6.7 16.5 6.7 5.3 0 13.9-3.3 19.6-7.4l4.8-3.5 1.4 3.2c3.4 7.7 12.7 9.8 21.4 4.8 8.1-4.7 10.8-9.1 5.4-9.1-3.3 0-3.9-4.1-3.9-26.3 0-23-.7-27.5-5.2-33.1-3.6-4.5-8.6-5.4-21.5-4.1zm1.7 45.9c0 13-.8 16.2-4.7 17.7-8.7 3.3-14.3-7-9.4-17.7 2-4.5 9.5-11.4 12.3-11.4 1.6 0 1.8 1 1.8 11.4zm223.5-46.3C480.7 74.5 473 83.2 473 95.4c0 5.4.4 6.9 3 10.4 3.5 4.8 8.6 8.3 18.5 12.5 13.7 5.9 17.3 7.7 20.4 10.3 2.6 2.1 3.1 3.3 3.1 6.9s-.5 4.8-3.2 7c-3.4 2.9-6.2 2.9-13.2 0-7-3-22.2-19.9-25.9-28.9-1.9-4.7-2.7.7-2.5 15.4l.3 15.4 7.3.3c4.1.1 9.7 1 12.5 1.8s8.1 1.5 11.9 1.5c15.6 0 27.8-11.4 27.8-26.1 0-8.6-5.2-15.6-15-20.1-7.3-3.3-11.1-4.8-12.4-4.8-2 0-9.9-3.7-12.8-5.9-1.4-1.1-3.1-3.4-3.8-5-1.1-2.6-.9-3.5.9-6.4 3.2-5.3 10.6-5.9 17.9-1.5 3.6 2.2 13.4 13.3 15.7 17.9.9 1.6 2.2 2.9 3 2.9 1.3 0 1.4-1.6.9-10.3-.8-15.6.3-14.1-11.6-15.5L502 71.6c-1.9-.3-5.7 0-8.5.5zm68 .6c-1.1.3-2.4.8-3 1.2-.5.5-4.4 1.8-8.5 3-17.9 5.4-19.4 6.2-14.5 8.1 1.6.6 3.3 2.6 4.5 5.2 1.7 3.8 2 6.7 2 24.6 0 21.6-.6 24.8-5 27.2-1.1.6-1.8 1.5-1.5 2 .8 1.3 77.5 1.3 77.5 0 0-.5-1.1-2-2.5-3.4l-2.5-2.5v-25.4c0-27.8-.3-26.5 6.2-28.8 3.1-1.1 4.2-1 6.3.1 4.4 2.3 5.5 8.7 5.5 30.4-.1 19.7-1.1 25.9-4.4 27.8-4 2.2-.7 2.8 15.9 2.8 9.6 0 17.5-.3 17.5-.6 0-.4-1.1-1.7-2.5-3l-2.5-2.3v-26.5-26.4l3.4-2.1c3.4-2.1 7.2-2.7 9.2-1.3.6.4 1.9 2.1 2.8 3.9 1.3 2.7 1.6 6.9 1.6 26.8 0 23.6-.4 26.9-3.7 28.8-.7.5-1.1 1.2-.8 1.8.7 1 31.8 1.3 32.9.2.4-.4-.3-1.5-1.6-2.5-2.3-1.7-2.3-2-2.9-29.5-.4-15.3-1-29-1.4-30.5-1.9-7-9.5-10.7-19.1-9.2-4.6.7-16.4 6.8-16.4 8.5 0 .5-1.2.9-2.7.9-2 0-3.3-.8-4.5-2.9-2.8-5-6.3-6.6-14.3-6.5-5.3.1-8.3.6-11.6 2.3-6.3 3.1-8.3 4.4-9.2 5.8-.4.7-1.5 1.3-2.2 1.3-1.1 0-1.5-1.2-1.5-4.6v-4.6l-3.2.5c-3.5.6-28.5 9.1-29.4 10-.3.3.8 1.3 2.5 2.1 4.9 2.6 6.1 8.5 6.1 30.4 0 15-.3 19-1.7 21.9-2.7 5.7-9.8 6.8-13.9 2.1-1.7-1.8-1.9-4.7-2.4-34.6-.3-20.5-.9-32.6-1.5-32.7-.5-.2-1.9 0-3 .2zm179.5.2c-1.4.5-4.2 1.8-6.3 3-4.7 2.7-5.5 2.6-5.9-.2-.2-1.7-.9-2.2-3.3-2.1-1.6.1-4.6.7-6.5 1.4-6.8 2.5-10.6 3.8-16.5 5.5-7.6 2.3-8.5 3.2-5.1 4.5 1.6.6 3.6 2 4.7 3.3 1.7 2.1 1.8 4.6 1.9 39.4v37.2l-4.7 4.6-4.8 4.5h22.4 22.4l-3.4-2.3c-5.3-3.5-6.9-7.8-6.9-18.1 0-8.7 0-8.8 2.3-8.2 11.6 3 12 3 19.4.7 13-4 20.3-13.4 23.3-29.9 1.1-6.1 1.1-8.9 0-17-.7-5.3-2.2-11.4-3.2-13.4-2.8-5.4-9.4-11.6-13.6-12.8-4.3-1.1-12.6-1.2-16.2-.1zm1.9 10.3c1.7 1.7 3.1 3.9 3.1 4.7 0 .9.7 3.4 1.5 5.6.9 2.6 1.4 8.2 1.5 16.4 0 14.5-1.8 22.6-6.3 28.3-2.5 3.4-3.4 3.8-7.2 3.8-7.4 0-7.5-.4-7.4-30 0-14 .4-26.3.8-27.4.4-1 1.8-2.4 3.2-3.2 4-2.2 7.4-1.7 10.8 1.8zM844 73c-4.1.3-8.8 1.2-10.5 2-5.5 2.6-12 8.1-15.1 12.8-5.2 7.9-6.4 12.2-6.4 23.1 0 8.3.4 10.7 2.5 15.5 2.5 5.7 10.7 15.6 12.9 15.6.7 0 1.7.5 2.4 1.2 2 2 12.4 4.8 18.1 4.8 3 0 8.4-1 12-2.2 9.9-3.3 18.1-12.2 21.9-23.6 1.4-4.3 0-4.1-4.6.7-7 7.3-18.9 9.2-27.7 4.3-5.8-3.2-9.6-8.5-11.4-16-2-8.3-2.4-8.1 22.3-8.4l21.1-.3-.2-5.1c-.3-6.5-3.3-12.4-8.7-17-7.8-6.7-14.8-8.5-28.6-7.4zm9.9 4.8c2.5 2.4 2.8 3.7 3.4 11.5.4 4.9.5 9.3.2 9.8-.8 1.2-19.2 1.2-20-.1-1.1-1.7 1.7-16.3 3.7-19.7 3-5 8.6-5.7 12.7-1.5zm-680.6-2.7c-4.6 2.1-15.3 11.4-15.3 13.3 0 .7-.5 1.7-1.1 2.3-2.7 2.7-4.9 11.8-4.9 20.5 0 8.5.6 11.1 4.8 19.3 7 13.9 28.1 21.3 43.7 15.3 7-2.6 15.7-10.3 18.3-16.1 5.6-12 5.5-13.3-.5-7.6-12.6 12.1-28.6 10.2-37.7-4.4-1-1.7-1.8-5.1-1.9-8.5l-.2-5.7 22-.5 22-.5-.1-3c-.3-6.9-2.5-11.8-7.8-17-7.8-7.8-12.4-9.5-26-9.4-8.7.1-12 .5-15.3 2zm21.2 2.5c2.6 2.8 3.9 9.6 3.3 17.4l-.3 4.5H188h-9.5l.2-7c.3-7.8 2.8-14.9 5.8-16.4 3.7-1.8 7.5-1.2 10 1.5z"/></svg>