<svg version="1.0" xmlns="http://www.w3.org/2000/svg" viewBox="-250 -100 1400 830"><g fill="#999"><path d="M504.5 204.6c-1.1.3-6 1.1-11 2-4.9.9-12.1 2.2-16 2.9-13.5 2.6-20.1 3.7-26.2 4.5-6.7.8-9.3 2.2-9.3 4.9 0 2.5 2 4.1 5.2 4.1 3.7 0 9.9 3.2 11.6 6 .7 1.2 2.2 4.9 3.2 8.3 1.9 5.9 2 9.9 2 94.9v88.6l7.3 1.6c27.7 6 59.3 7.1 76.7 2.5 22.8-5.9 40.7-19.9 50.2-39.1 7.4-14.9 9.8-25.9 9.8-44.3 0-18.8-2.5-28.8-11.8-46-3.5-6.6-17.3-19-25.2-22.6-8.8-4-13.4-4.9-26.3-4.9-9.1 0-13.8.4-16.4 1.5-1.9.8-4.4 1.5-5.5 1.5s-2.9.5-4.1 1.2-3.7 1.8-5.5 2.4c-3 1.1-3.3 1-3.9-1.3-.3-1.4-.4-17.3-.1-35.4.4-27.9.3-32.9-.9-33.3-.8-.4-1.5-.5-1.6-.5-.1.1-1.1.3-2.2.5zm28.8 80.8c7.2 2.5 14.9 10.1 18.9 18.6 3.5 7.6 4.8 11.1 4.8 13 0 1 .7 4.5 1.5 7.7 3.3 12.5 1.5 40.5-3.7 57.3-4.2 13.9-12.8 27.3-19.8 31.1-8.2 4.4-19 5.3-23.1 2l-2.4-1.9-.3-62.1c-.3-43.5-.1-62.6.7-63.5.6-.7 3.7-1.8 6.8-2.5 3.2-.8 6.3-1.4 6.8-1.6 1.3-.4 5.9.5 9.8 1.9zm-531.9-76c-.3.8-.4 2.7-.2 4.3.3 2.6.7 2.9 5.4 3.4 14.5 1.8 20.4 7.3 23.7 21.9 1.9 8.5 3.8 46.6 3.6 75.5-.1 27.2-2.6 76.3-4.1 81.5-3.3 11-7.5 15.1-17.8 17.5-4.1 1-8.1 1.9-8.8 2.1-1.8.5-2.5 3-1.8 5.9L2 424l57.3-.2 57.2-.3v-4c0-3.9-.1-4-3.5-4.3-1.9-.1-6.6-1-10.3-1.9-10.6-2.6-14.6-7.9-17.6-22.8-1.4-6.5-3.5-66.1-2.4-67.8.8-1.4 26.7-.1 31.4 1.6 6.2 2.2 10.6 6.3 13.7 12.9 1.6 3.5 3.2 8 3.6 10 .8 4.4 3.4 6.2 7.7 5.3l2.9-.7-.2-35.6-.3-35.7-3.3-.3c-4.2-.4-6 1-6.8 5.6-1.8 9.4-8.7 18.9-16.1 22.2-4.1 1.8-6.4 2-18.7 1.8l-14.1-.3.4-37.4c.2-20.6.7-39.9 1-43l.6-5.6 21.8-.3c23.1-.3 27.8.4 37.7 5.4 4.1 2.1 15.5 13.2 17 16.5.6 1.3 2 4 3.1 5.9 1.2 1.9 3.6 7.1 5.4 11.5 3.5 8.9 4.9 9.8 10.1 6.6l3.1-1.9-.4-28.3c-.3-15.6-.6-29-.8-29.7-.4-.9-19.2-1.2-90-1.2-76.3 0-89.6.2-90.1 1.4zM229 266.1c-2.5.4-6.7 1.2-9.5 1.7-6.2 1.2-16 5-22.3 8.6-8.1 4.7-21.8 18.2-23.9 23.6-.3.8-1.1 2.2-1.8 3-1.9 2.5-6.4 14-8.5 22-2.6 9.9-2.8 33.9-.4 43.8 5.6 23 16.3 38.9 32.4 48.6 3.4 2 6.5 3.6 7 3.6s2.1.6 3.7 1.4c11.9 6 40.7 7.1 57.9 2.2 4.5-1.2 13.2-5.2 20.4-9.1 3.3-1.8 13.7-11.9 17.6-17 6.1-7.9 9.8-15.8 14-30 2.8-9.3 2.4-36.1-.6-47.5-1.2-4.6-2.6-9.1-3-10-.4-.8-1.8-3.8-3-6.5-8-17.6-26.8-32.7-45.5-36.5-15.5-3.2-25-3.7-34.5-1.9zm15.8 10.7c8.6 2.6 18.9 19 21.3 34.2.5 3 1.3 7.1 1.9 9 1.7 5.9 1.3 53.2-.6 62-2.1 10.2-4.5 17.8-6.8 22-6.6 11.8-18.8 17-28.6 12-10.9-5.5-17.3-18.4-21.6-43.1-1.3-7.6-1.5-14.2-1.1-32.5.5-26.2 2.3-37.9 7.9-50.1 2.5-5.3 9.1-12 13.2-13.2 3.6-1.1 11.1-1.2 14.4-.3z"/><path d="M421.3 266.8c-2.9 1-5.8 2.3-6.5 3-.6.6-1.7 1.2-2.4 1.2-2.1 0-16.4 14.1-19.2 18.9-1.4 2.5-3.5 5.5-4.5 6.6-1.8 2-1.8 1.6-1.1-14.4l.7-16.4-4.4.7c-2.4.4-6.6 1.1-9.4 1.5-2.7.5-7.5 1.4-10.5 2-11.5 2.5-33.4 6.7-39.2 7.6-3.2.5-5.8 2.7-5.8 4.9 0 1.7 3.7 3.6 6.9 3.6 6.1 0 11.2 4.4 13.5 11.6 1.8 5.5 1.9 9.4 1.8 53.4 0 43.6-.2 47.9-1.9 52-1 2.5-2.5 5.5-3.3 6.6-2.1 3-7.3 5.4-11.4 5.4s-6.2 2.7-5.2 6.6l.6 2.4 47.3-.2 47.2-.3.3-2.8c.5-4.5-1.2-5.7-8.6-5.7-7.5 0-11.9-2.2-15-7.3-3.5-5.7-4.7-21.1-4.7-60v-35.9l2.9-2.1c5.6-4.1 10.7-5.6 19.6-5.6 8.3-.1 18.3 2.3 21.7 5.1.7.5 2.2.8 3.3.6 2.1-.3 3.3-2.5 7.6-14.1 3.7-9.9 4.7-12.3 5.5-13.9 1.5-2.8 3.9-10.2 3.9-11.8 0-2.3-9.6-5-17.6-4.9-3.8 0-9.3.8-12.1 1.7zm268.2-.8c-2.2.4-5.8 1.1-8 1.5-10 1.7-24.8 9.2-34.6 17.7-7.1 6.1-20.9 28.9-20.9 34.6 0 .9-.8 3.7-1.7 6.2-1.2 3.5-1.6 8.3-1.6 21.5 0 20 .8 24.2 8.5 39.8 4.3 8.9 4.9 9.7 13.6 18.5 7.3 7.4 10.2 9.5 18.3 13.5 5.3 2.6 10.3 4.7 11 4.7.8 0 3.4.8 5.9 1.7 6.6 2.3 35.8 2.3 41.4 0 2.1-1 4.5-1.7 5.2-1.7 4.4 0 22.4-10.4 28.8-16.6 5.6-5.5 6.9-7.9 5.6-10.3-1.4-2.7-2.9-2.6-7.1.2-7.6 5-20.1 8.7-29.9 8.7-7.2 0-19-3-26.4-6.6-10.9-5.3-20-16.8-25-31.4-1.8-5.5-4.2-24-3.3-26.3.6-1.6 4.5-1.7 47.1-1.7 35.9 0 46.7-.3 47.2-1.2 2.1-3.3-1.2-27.8-4.6-34.8-.4-.8-1.7-3.5-2.9-6-7.7-16-21-26.7-38.6-31-6.3-1.5-22.7-2.1-28-1zm16.6 13.6c6 5.7 8.6 13.4 10.4 31.2.8 7.2 1.2 13.9.9 14.7-.9 2.4-3.5 2.6-26.4 2.3l-21.5-.3.2-3c.9-18.1 6.7-34.7 14.9-42.7 5.1-5 7.2-5.8 13.7-5.4 3.7.2 5.5 1 7.8 3.2zM824 267c-11 2.4-15.9 4.2-22.8 8.7-7.9 4.9-14.8 12.6-18.5 20.3-2.9 5.9-3.2 7.6-3.5 17.9-.4 11.7-.1 13.1 4.7 22.9 2.5 5.3 12.2 13.6 20.3 17.5 10.5 5 14.7 6.7 16.3 6.7.7 0 2.6.6 4.2 1.4 1.5.8 6 2.9 9.8 4.7 3.9 1.8 8.7 4.6 10.9 6.3 4.5 3.5 8.6 11.5 8.5 16.6-.1 7-5.5 16.1-11.9 20.1-1.4.8-5.1 2.1-8.3 2.9-4.8 1.1-6.9 1.1-13 0-13.7-2.6-23.3-10.8-32-27-1.9-3.6-3.7-7.7-4.1-9.2-.7-3.2-3.4-4.9-6.4-4.1-2.2.5-2.2.8-2.2 22.8 0 24.4-.1 23.9 6.2 25.5 22.3 5.8 26.5 6.3 46.3 6.3 16.5.1 20.1-.2 27-2.1 4.3-1.2 8.4-2.7 8.9-3.2.6-.6 1.6-1 2.4-1 1.8 0 11.8-6.7 15.7-10.5 4.3-4.4 9.8-13.1 11.8-19 1.2-3.6 1.7-8.2 1.7-16.3 0-10.6-.2-11.6-3.2-17.8-2.1-4.3-5.1-8.3-8.5-11.4-5.5-5-6.5-5.7-15-9.9-5.2-2.6-6.6-3.2-18.8-8.2-4.4-1.9-9.8-4.4-12-5.6-2.2-1.3-4.9-2.7-6.1-3.2-1.1-.5-4.1-3-6.7-5.6-3.6-3.7-4.8-5.7-5.4-9.4-1.9-11.2 2.1-20.4 11.1-25.2 4.8-2.5 16.8-2.6 22.3-.2 11.4 5.2 16.3 11.3 26.2 32.5 1.2 2.7 2.6 4.8 2.9 4.8.4 0 1.8-.7 3.1-1.7l2.4-1.6-.7-19.1c-.5-12.9-1.1-19.5-2-20.4-3.2-3.3-30.9-8.2-45.6-8.1-4.1.1-11.3.9-16 1.9z"/></g></svg>